<mxfile host="app.diagrams.net" modified="2023-06-04T14:21:47.722Z" agent="Mozilla/5.0 (Macintosh; Intel Mac OS X 10_15_7) AppleWebKit/537.36 (KHTML, like Gecko) Chrome/113.0.0.0 Safari/537.36" etag="F6IM4uDN8QfUQ2AXOsD5" version="21.3.7" type="github" pages="4">
  <diagram name="หน้า-1" id="ZWMAgVLyjWI7MSmMDOuR">
    <mxGraphModel dx="1418" dy="749" grid="1" gridSize="10" guides="1" tooltips="1" connect="1" arrows="1" fold="1" page="1" pageScale="1" pageWidth="827" pageHeight="1169" math="0" shadow="0">
      <root>
        <mxCell id="0" />
        <mxCell id="1" parent="0" />
        <mxCell id="N7L9YUAf6S1qoitj2HfB-1" value="" style="group" vertex="1" connectable="0" parent="1">
          <mxGeometry x="182" y="130" width="463.85" height="730" as="geometry" />
        </mxCell>
        <mxCell id="yQmJgPQz5BLJ0bjMkjon-1" value="เริ่ม" style="ellipse;whiteSpace=wrap;html=1;" vertex="1" parent="N7L9YUAf6S1qoitj2HfB-1">
          <mxGeometry x="30" width="80" height="40" as="geometry" />
        </mxCell>
        <mxCell id="yQmJgPQz5BLJ0bjMkjon-2" value="ตรวจสอบสิทธิ์การใช้งาน" style="rounded=1;whiteSpace=wrap;html=1;" vertex="1" parent="N7L9YUAf6S1qoitj2HfB-1">
          <mxGeometry y="80" width="140" height="30" as="geometry" />
        </mxCell>
        <mxCell id="yQmJgPQz5BLJ0bjMkjon-3" value="" style="edgeStyle=orthogonalEdgeStyle;rounded=0;orthogonalLoop=1;jettySize=auto;html=1;" edge="1" parent="N7L9YUAf6S1qoitj2HfB-1" source="yQmJgPQz5BLJ0bjMkjon-1" target="yQmJgPQz5BLJ0bjMkjon-2">
          <mxGeometry relative="1" as="geometry" />
        </mxCell>
        <mxCell id="yQmJgPQz5BLJ0bjMkjon-4" value="มี ?" style="rhombus;whiteSpace=wrap;html=1;" vertex="1" parent="N7L9YUAf6S1qoitj2HfB-1">
          <mxGeometry x="40" y="140" width="60" height="60" as="geometry" />
        </mxCell>
        <mxCell id="yQmJgPQz5BLJ0bjMkjon-5" value="" style="edgeStyle=orthogonalEdgeStyle;rounded=0;orthogonalLoop=1;jettySize=auto;html=1;" edge="1" parent="N7L9YUAf6S1qoitj2HfB-1" source="yQmJgPQz5BLJ0bjMkjon-2" target="yQmJgPQz5BLJ0bjMkjon-4">
          <mxGeometry relative="1" as="geometry" />
        </mxCell>
        <mxCell id="yQmJgPQz5BLJ0bjMkjon-6" value="สิ้นสุด" style="ellipse;whiteSpace=wrap;html=1;" vertex="1" parent="N7L9YUAf6S1qoitj2HfB-1">
          <mxGeometry x="225" y="690" width="80" height="40" as="geometry" />
        </mxCell>
        <mxCell id="yQmJgPQz5BLJ0bjMkjon-7" style="edgeStyle=orthogonalEdgeStyle;rounded=0;orthogonalLoop=1;jettySize=auto;html=1;entryX=0;entryY=0.5;entryDx=0;entryDy=0;" edge="1" parent="N7L9YUAf6S1qoitj2HfB-1" source="yQmJgPQz5BLJ0bjMkjon-4" target="yQmJgPQz5BLJ0bjMkjon-6">
          <mxGeometry relative="1" as="geometry">
            <Array as="points">
              <mxPoint x="70" y="710" />
            </Array>
          </mxGeometry>
        </mxCell>
        <mxCell id="yQmJgPQz5BLJ0bjMkjon-8" value="ไม่" style="edgeLabel;html=1;align=center;verticalAlign=middle;resizable=0;points=[];" vertex="1" connectable="0" parent="yQmJgPQz5BLJ0bjMkjon-7">
          <mxGeometry x="-0.8925" y="1" relative="1" as="geometry">
            <mxPoint as="offset" />
          </mxGeometry>
        </mxCell>
        <mxCell id="yQmJgPQz5BLJ0bjMkjon-9" value="ตรวจสอบ Account &lt;br&gt;สถานะการใช้งาน" style="rounded=1;whiteSpace=wrap;html=1;" vertex="1" parent="N7L9YUAf6S1qoitj2HfB-1">
          <mxGeometry x="216.35000000000002" y="149" width="170" height="40" as="geometry" />
        </mxCell>
        <mxCell id="yQmJgPQz5BLJ0bjMkjon-10" value="" style="edgeStyle=orthogonalEdgeStyle;rounded=0;orthogonalLoop=1;jettySize=auto;html=1;" edge="1" parent="N7L9YUAf6S1qoitj2HfB-1" source="yQmJgPQz5BLJ0bjMkjon-4" target="yQmJgPQz5BLJ0bjMkjon-9">
          <mxGeometry relative="1" as="geometry">
            <Array as="points">
              <mxPoint x="180" y="170" />
              <mxPoint x="180" y="170" />
            </Array>
          </mxGeometry>
        </mxCell>
        <mxCell id="yQmJgPQz5BLJ0bjMkjon-11" value="ใช่" style="edgeLabel;html=1;align=center;verticalAlign=middle;resizable=0;points=[];" vertex="1" connectable="0" parent="yQmJgPQz5BLJ0bjMkjon-10">
          <mxGeometry x="-0.7797" y="-1" relative="1" as="geometry">
            <mxPoint as="offset" />
          </mxGeometry>
        </mxCell>
        <mxCell id="yQmJgPQz5BLJ0bjMkjon-12" value="มีใน&lt;br&gt;ระบบ &lt;br&gt;?" style="rhombus;whiteSpace=wrap;html=1;" vertex="1" parent="N7L9YUAf6S1qoitj2HfB-1">
          <mxGeometry x="263.85" y="228" width="75" height="70" as="geometry" />
        </mxCell>
        <mxCell id="yQmJgPQz5BLJ0bjMkjon-13" value="" style="edgeStyle=orthogonalEdgeStyle;rounded=0;orthogonalLoop=1;jettySize=auto;html=1;" edge="1" parent="N7L9YUAf6S1qoitj2HfB-1" source="yQmJgPQz5BLJ0bjMkjon-9" target="yQmJgPQz5BLJ0bjMkjon-12">
          <mxGeometry relative="1" as="geometry" />
        </mxCell>
        <mxCell id="yQmJgPQz5BLJ0bjMkjon-14" value="status&lt;br style=&quot;border-color: var(--border-color);&quot;&gt;= 1 ?" style="rhombus;whiteSpace=wrap;html=1;" vertex="1" parent="N7L9YUAf6S1qoitj2HfB-1">
          <mxGeometry x="271.35" y="348" width="60" height="60" as="geometry" />
        </mxCell>
        <mxCell id="yQmJgPQz5BLJ0bjMkjon-15" value="" style="edgeStyle=orthogonalEdgeStyle;rounded=0;orthogonalLoop=1;jettySize=auto;html=1;" edge="1" parent="N7L9YUAf6S1qoitj2HfB-1" source="yQmJgPQz5BLJ0bjMkjon-12" target="yQmJgPQz5BLJ0bjMkjon-14">
          <mxGeometry relative="1" as="geometry" />
        </mxCell>
        <mxCell id="yQmJgPQz5BLJ0bjMkjon-16" value="ใช่" style="edgeLabel;html=1;align=center;verticalAlign=middle;resizable=0;points=[];" vertex="1" connectable="0" parent="yQmJgPQz5BLJ0bjMkjon-15">
          <mxGeometry x="-0.3254" y="2" relative="1" as="geometry">
            <mxPoint x="-2" as="offset" />
          </mxGeometry>
        </mxCell>
        <mxCell id="yQmJgPQz5BLJ0bjMkjon-17" value="Locked&lt;br style=&quot;border-color: var(--border-color);&quot;&gt;= 1 ?&amp;nbsp;" style="rhombus;whiteSpace=wrap;html=1;" vertex="1" parent="N7L9YUAf6S1qoitj2HfB-1">
          <mxGeometry x="271.35" y="478" width="60" height="60" as="geometry" />
        </mxCell>
        <mxCell id="yQmJgPQz5BLJ0bjMkjon-18" value="" style="edgeStyle=orthogonalEdgeStyle;rounded=0;orthogonalLoop=1;jettySize=auto;html=1;" edge="1" parent="N7L9YUAf6S1qoitj2HfB-1" source="yQmJgPQz5BLJ0bjMkjon-14" target="yQmJgPQz5BLJ0bjMkjon-17">
          <mxGeometry relative="1" as="geometry" />
        </mxCell>
        <mxCell id="yQmJgPQz5BLJ0bjMkjon-19" value="ไม่" style="edgeLabel;html=1;align=center;verticalAlign=middle;resizable=0;points=[];" vertex="1" connectable="0" parent="yQmJgPQz5BLJ0bjMkjon-18">
          <mxGeometry x="-0.3745" relative="1" as="geometry">
            <mxPoint as="offset" />
          </mxGeometry>
        </mxCell>
        <mxCell id="yQmJgPQz5BLJ0bjMkjon-20" style="edgeStyle=orthogonalEdgeStyle;rounded=0;orthogonalLoop=1;jettySize=auto;html=1;entryX=0;entryY=0;entryDx=0;entryDy=0;" edge="1" parent="N7L9YUAf6S1qoitj2HfB-1" source="yQmJgPQz5BLJ0bjMkjon-21" target="yQmJgPQz5BLJ0bjMkjon-6">
          <mxGeometry relative="1" as="geometry">
            <Array as="points">
              <mxPoint x="208" y="690" />
              <mxPoint x="237" y="690" />
            </Array>
          </mxGeometry>
        </mxCell>
        <mxCell id="yQmJgPQz5BLJ0bjMkjon-21" value="" style="ellipse;whiteSpace=wrap;html=1;aspect=fixed;" vertex="1" parent="N7L9YUAf6S1qoitj2HfB-1">
          <mxGeometry x="183.75" y="560" width="30" height="30" as="geometry" />
        </mxCell>
        <mxCell id="yQmJgPQz5BLJ0bjMkjon-22" style="edgeStyle=orthogonalEdgeStyle;rounded=0;orthogonalLoop=1;jettySize=auto;html=1;" edge="1" parent="N7L9YUAf6S1qoitj2HfB-1" source="yQmJgPQz5BLJ0bjMkjon-23" target="yQmJgPQz5BLJ0bjMkjon-21">
          <mxGeometry relative="1" as="geometry">
            <Array as="points">
              <mxPoint x="100" y="263" />
              <mxPoint x="100" y="580" />
            </Array>
          </mxGeometry>
        </mxCell>
        <mxCell id="yQmJgPQz5BLJ0bjMkjon-23" value="rerturn Error Code&amp;nbsp;001&lt;span style=&quot;font-size: medium; text-align: start;&quot;&gt;&lt;/span&gt;" style="rounded=1;whiteSpace=wrap;html=1;" vertex="1" parent="N7L9YUAf6S1qoitj2HfB-1">
          <mxGeometry x="110" y="243" width="77.5" height="40" as="geometry" />
        </mxCell>
        <mxCell id="yQmJgPQz5BLJ0bjMkjon-24" style="edgeStyle=orthogonalEdgeStyle;rounded=0;orthogonalLoop=1;jettySize=auto;html=1;" edge="1" parent="N7L9YUAf6S1qoitj2HfB-1" source="yQmJgPQz5BLJ0bjMkjon-12" target="yQmJgPQz5BLJ0bjMkjon-23">
          <mxGeometry relative="1" as="geometry">
            <mxPoint x="200.10000000000002" y="368" as="targetPoint" />
          </mxGeometry>
        </mxCell>
        <mxCell id="yQmJgPQz5BLJ0bjMkjon-25" value="ไม่" style="edgeLabel;html=1;align=center;verticalAlign=middle;resizable=0;points=[];" vertex="1" connectable="0" parent="yQmJgPQz5BLJ0bjMkjon-24">
          <mxGeometry x="-0.6573" y="2" relative="1" as="geometry">
            <mxPoint as="offset" />
          </mxGeometry>
        </mxCell>
        <mxCell id="yQmJgPQz5BLJ0bjMkjon-26" style="edgeStyle=orthogonalEdgeStyle;rounded=0;orthogonalLoop=1;jettySize=auto;html=1;entryX=0.5;entryY=0;entryDx=0;entryDy=0;" edge="1" parent="N7L9YUAf6S1qoitj2HfB-1" source="yQmJgPQz5BLJ0bjMkjon-27" target="yQmJgPQz5BLJ0bjMkjon-21">
          <mxGeometry relative="1" as="geometry" />
        </mxCell>
        <mxCell id="yQmJgPQz5BLJ0bjMkjon-27" value="rerturn Error Code&amp;nbsp;011&lt;span style=&quot;font-size: medium; text-align: start;&quot;&gt;&lt;/span&gt;" style="rounded=1;whiteSpace=wrap;html=1;" vertex="1" parent="N7L9YUAf6S1qoitj2HfB-1">
          <mxGeometry x="160" y="488" width="77.5" height="40" as="geometry" />
        </mxCell>
        <mxCell id="yQmJgPQz5BLJ0bjMkjon-28" value="" style="edgeStyle=orthogonalEdgeStyle;rounded=0;orthogonalLoop=1;jettySize=auto;html=1;" edge="1" parent="N7L9YUAf6S1qoitj2HfB-1" source="yQmJgPQz5BLJ0bjMkjon-17" target="yQmJgPQz5BLJ0bjMkjon-27">
          <mxGeometry relative="1" as="geometry" />
        </mxCell>
        <mxCell id="yQmJgPQz5BLJ0bjMkjon-29" value="ใช่" style="edgeLabel;html=1;align=center;verticalAlign=middle;resizable=0;points=[];" vertex="1" connectable="0" parent="yQmJgPQz5BLJ0bjMkjon-28">
          <mxGeometry x="-0.4608" y="1" relative="1" as="geometry">
            <mxPoint as="offset" />
          </mxGeometry>
        </mxCell>
        <mxCell id="yQmJgPQz5BLJ0bjMkjon-30" style="edgeStyle=orthogonalEdgeStyle;rounded=0;orthogonalLoop=1;jettySize=auto;html=1;" edge="1" parent="N7L9YUAf6S1qoitj2HfB-1" source="yQmJgPQz5BLJ0bjMkjon-31" target="yQmJgPQz5BLJ0bjMkjon-21">
          <mxGeometry relative="1" as="geometry">
            <mxPoint x="200" y="570" as="targetPoint" />
            <Array as="points">
              <mxPoint x="140" y="378" />
              <mxPoint x="140" y="564" />
            </Array>
          </mxGeometry>
        </mxCell>
        <mxCell id="yQmJgPQz5BLJ0bjMkjon-31" value="rerturn Error Code&amp;nbsp;004&lt;span style=&quot;font-size: medium; text-align: start;&quot;&gt;&lt;/span&gt;" style="rounded=1;whiteSpace=wrap;html=1;" vertex="1" parent="N7L9YUAf6S1qoitj2HfB-1">
          <mxGeometry x="160" y="358" width="77.5" height="40" as="geometry" />
        </mxCell>
        <mxCell id="yQmJgPQz5BLJ0bjMkjon-32" value="" style="edgeStyle=orthogonalEdgeStyle;rounded=0;orthogonalLoop=1;jettySize=auto;html=1;" edge="1" parent="N7L9YUAf6S1qoitj2HfB-1" source="yQmJgPQz5BLJ0bjMkjon-14" target="yQmJgPQz5BLJ0bjMkjon-31">
          <mxGeometry relative="1" as="geometry" />
        </mxCell>
        <mxCell id="yQmJgPQz5BLJ0bjMkjon-33" value="ใช่" style="edgeLabel;html=1;align=center;verticalAlign=middle;resizable=0;points=[];" vertex="1" connectable="0" parent="yQmJgPQz5BLJ0bjMkjon-32">
          <mxGeometry x="-0.4608" y="2" relative="1" as="geometry">
            <mxPoint as="offset" />
          </mxGeometry>
        </mxCell>
        <mxCell id="yQmJgPQz5BLJ0bjMkjon-34" value="ดึงข้อมูลเขตทั้งหมด&lt;span style=&quot;font-size: medium; text-align: start;&quot;&gt;&lt;/span&gt;" style="rounded=1;whiteSpace=wrap;html=1;" vertex="1" parent="N7L9YUAf6S1qoitj2HfB-1">
          <mxGeometry x="386.35" y="488" width="77.5" height="40" as="geometry" />
        </mxCell>
        <mxCell id="yQmJgPQz5BLJ0bjMkjon-35" value="" style="edgeStyle=orthogonalEdgeStyle;rounded=0;orthogonalLoop=1;jettySize=auto;html=1;" edge="1" parent="N7L9YUAf6S1qoitj2HfB-1" source="yQmJgPQz5BLJ0bjMkjon-17" target="yQmJgPQz5BLJ0bjMkjon-34">
          <mxGeometry relative="1" as="geometry" />
        </mxCell>
        <mxCell id="yQmJgPQz5BLJ0bjMkjon-36" style="edgeStyle=orthogonalEdgeStyle;rounded=0;orthogonalLoop=1;jettySize=auto;html=1;entryX=1;entryY=0.5;entryDx=0;entryDy=0;" edge="1" parent="N7L9YUAf6S1qoitj2HfB-1" source="yQmJgPQz5BLJ0bjMkjon-37" target="yQmJgPQz5BLJ0bjMkjon-6">
          <mxGeometry relative="1" as="geometry" />
        </mxCell>
        <mxCell id="yQmJgPQz5BLJ0bjMkjon-37" value="ส่งข้อมูลเขตกลับไป" style="rounded=1;whiteSpace=wrap;html=1;" vertex="1" parent="N7L9YUAf6S1qoitj2HfB-1">
          <mxGeometry x="386.35" y="590" width="77.5" height="40" as="geometry" />
        </mxCell>
        <mxCell id="yQmJgPQz5BLJ0bjMkjon-38" value="" style="edgeStyle=orthogonalEdgeStyle;rounded=0;orthogonalLoop=1;jettySize=auto;html=1;" edge="1" parent="N7L9YUAf6S1qoitj2HfB-1" source="yQmJgPQz5BLJ0bjMkjon-34" target="yQmJgPQz5BLJ0bjMkjon-37">
          <mxGeometry relative="1" as="geometry" />
        </mxCell>
      </root>
    </mxGraphModel>
  </diagram>
  <diagram id="o4d77BDKfNOOPqZT86zK" name="หน้า-2">
    <mxGraphModel dx="1472" dy="778" grid="1" gridSize="10" guides="1" tooltips="1" connect="1" arrows="1" fold="1" page="1" pageScale="1" pageWidth="827" pageHeight="1169" math="0" shadow="0">
      <root>
        <mxCell id="0" />
        <mxCell id="1" parent="0" />
        <mxCell id="Hhs6KYRUo3cy5BL_Wlbw-1" value="" style="group" vertex="1" connectable="0" parent="1">
          <mxGeometry x="60" y="220" width="707.5" height="730" as="geometry" />
        </mxCell>
        <mxCell id="Hhs6KYRUo3cy5BL_Wlbw-2" value="เริ่ม" style="ellipse;whiteSpace=wrap;html=1;" vertex="1" parent="Hhs6KYRUo3cy5BL_Wlbw-1">
          <mxGeometry x="30" width="80" height="40" as="geometry" />
        </mxCell>
        <mxCell id="Hhs6KYRUo3cy5BL_Wlbw-3" value="ตรวจสอบสิทธิ์การใช้งาน" style="rounded=1;whiteSpace=wrap;html=1;" vertex="1" parent="Hhs6KYRUo3cy5BL_Wlbw-1">
          <mxGeometry y="80" width="140" height="30" as="geometry" />
        </mxCell>
        <mxCell id="Hhs6KYRUo3cy5BL_Wlbw-4" value="" style="edgeStyle=orthogonalEdgeStyle;rounded=0;orthogonalLoop=1;jettySize=auto;html=1;" edge="1" parent="Hhs6KYRUo3cy5BL_Wlbw-1" source="Hhs6KYRUo3cy5BL_Wlbw-2" target="Hhs6KYRUo3cy5BL_Wlbw-3">
          <mxGeometry relative="1" as="geometry" />
        </mxCell>
        <mxCell id="Hhs6KYRUo3cy5BL_Wlbw-5" value="มี ?" style="rhombus;whiteSpace=wrap;html=1;" vertex="1" parent="Hhs6KYRUo3cy5BL_Wlbw-1">
          <mxGeometry x="40" y="140" width="60" height="60" as="geometry" />
        </mxCell>
        <mxCell id="Hhs6KYRUo3cy5BL_Wlbw-6" value="" style="edgeStyle=orthogonalEdgeStyle;rounded=0;orthogonalLoop=1;jettySize=auto;html=1;" edge="1" parent="Hhs6KYRUo3cy5BL_Wlbw-1" source="Hhs6KYRUo3cy5BL_Wlbw-3" target="Hhs6KYRUo3cy5BL_Wlbw-5">
          <mxGeometry relative="1" as="geometry" />
        </mxCell>
        <mxCell id="Hhs6KYRUo3cy5BL_Wlbw-7" value="สิ้นสุด" style="ellipse;whiteSpace=wrap;html=1;" vertex="1" parent="Hhs6KYRUo3cy5BL_Wlbw-1">
          <mxGeometry x="225" y="690" width="80" height="40" as="geometry" />
        </mxCell>
        <mxCell id="Hhs6KYRUo3cy5BL_Wlbw-8" style="edgeStyle=orthogonalEdgeStyle;rounded=0;orthogonalLoop=1;jettySize=auto;html=1;entryX=0;entryY=0.5;entryDx=0;entryDy=0;" edge="1" parent="Hhs6KYRUo3cy5BL_Wlbw-1" source="Hhs6KYRUo3cy5BL_Wlbw-5" target="Hhs6KYRUo3cy5BL_Wlbw-7">
          <mxGeometry relative="1" as="geometry">
            <Array as="points">
              <mxPoint x="70" y="710" />
            </Array>
          </mxGeometry>
        </mxCell>
        <mxCell id="Hhs6KYRUo3cy5BL_Wlbw-9" value="ไม่" style="edgeLabel;html=1;align=center;verticalAlign=middle;resizable=0;points=[];" vertex="1" connectable="0" parent="Hhs6KYRUo3cy5BL_Wlbw-8">
          <mxGeometry x="-0.8925" y="1" relative="1" as="geometry">
            <mxPoint as="offset" />
          </mxGeometry>
        </mxCell>
        <mxCell id="Hhs6KYRUo3cy5BL_Wlbw-10" value="ตรวจสอบ Account &lt;br&gt;สถานะการใช้งาน" style="rounded=1;whiteSpace=wrap;html=1;" vertex="1" parent="Hhs6KYRUo3cy5BL_Wlbw-1">
          <mxGeometry x="216.3499999999999" y="149" width="170" height="40" as="geometry" />
        </mxCell>
        <mxCell id="Hhs6KYRUo3cy5BL_Wlbw-11" value="" style="edgeStyle=orthogonalEdgeStyle;rounded=0;orthogonalLoop=1;jettySize=auto;html=1;" edge="1" parent="Hhs6KYRUo3cy5BL_Wlbw-1" source="Hhs6KYRUo3cy5BL_Wlbw-5" target="Hhs6KYRUo3cy5BL_Wlbw-10">
          <mxGeometry relative="1" as="geometry">
            <Array as="points">
              <mxPoint x="180" y="170" />
              <mxPoint x="180" y="170" />
            </Array>
          </mxGeometry>
        </mxCell>
        <mxCell id="Hhs6KYRUo3cy5BL_Wlbw-12" value="ใช่" style="edgeLabel;html=1;align=center;verticalAlign=middle;resizable=0;points=[];" vertex="1" connectable="0" parent="Hhs6KYRUo3cy5BL_Wlbw-11">
          <mxGeometry x="-0.7797" y="-1" relative="1" as="geometry">
            <mxPoint as="offset" />
          </mxGeometry>
        </mxCell>
        <mxCell id="Hhs6KYRUo3cy5BL_Wlbw-13" value="มีใน&lt;br&gt;ระบบ &lt;br&gt;?" style="rhombus;whiteSpace=wrap;html=1;" vertex="1" parent="Hhs6KYRUo3cy5BL_Wlbw-1">
          <mxGeometry x="263.8499999999999" y="228" width="75" height="70" as="geometry" />
        </mxCell>
        <mxCell id="Hhs6KYRUo3cy5BL_Wlbw-14" value="" style="edgeStyle=orthogonalEdgeStyle;rounded=0;orthogonalLoop=1;jettySize=auto;html=1;" edge="1" parent="Hhs6KYRUo3cy5BL_Wlbw-1" source="Hhs6KYRUo3cy5BL_Wlbw-10" target="Hhs6KYRUo3cy5BL_Wlbw-13">
          <mxGeometry relative="1" as="geometry" />
        </mxCell>
        <mxCell id="Hhs6KYRUo3cy5BL_Wlbw-15" value="status&lt;br style=&quot;border-color: var(--border-color);&quot;&gt;= 1 ?" style="rhombus;whiteSpace=wrap;html=1;" vertex="1" parent="Hhs6KYRUo3cy5BL_Wlbw-1">
          <mxGeometry x="271.3499999999999" y="348" width="60" height="60" as="geometry" />
        </mxCell>
        <mxCell id="Hhs6KYRUo3cy5BL_Wlbw-16" value="" style="edgeStyle=orthogonalEdgeStyle;rounded=0;orthogonalLoop=1;jettySize=auto;html=1;" edge="1" parent="Hhs6KYRUo3cy5BL_Wlbw-1" source="Hhs6KYRUo3cy5BL_Wlbw-13" target="Hhs6KYRUo3cy5BL_Wlbw-15">
          <mxGeometry relative="1" as="geometry" />
        </mxCell>
        <mxCell id="Hhs6KYRUo3cy5BL_Wlbw-17" value="ใช่" style="edgeLabel;html=1;align=center;verticalAlign=middle;resizable=0;points=[];" vertex="1" connectable="0" parent="Hhs6KYRUo3cy5BL_Wlbw-16">
          <mxGeometry x="-0.3254" y="2" relative="1" as="geometry">
            <mxPoint x="-2" as="offset" />
          </mxGeometry>
        </mxCell>
        <mxCell id="Hhs6KYRUo3cy5BL_Wlbw-18" value="Locked&lt;br style=&quot;border-color: var(--border-color);&quot;&gt;= 1 ?&amp;nbsp;" style="rhombus;whiteSpace=wrap;html=1;" vertex="1" parent="Hhs6KYRUo3cy5BL_Wlbw-1">
          <mxGeometry x="271.3499999999999" y="478" width="60" height="60" as="geometry" />
        </mxCell>
        <mxCell id="Hhs6KYRUo3cy5BL_Wlbw-19" value="" style="edgeStyle=orthogonalEdgeStyle;rounded=0;orthogonalLoop=1;jettySize=auto;html=1;" edge="1" parent="Hhs6KYRUo3cy5BL_Wlbw-1" source="Hhs6KYRUo3cy5BL_Wlbw-15" target="Hhs6KYRUo3cy5BL_Wlbw-18">
          <mxGeometry relative="1" as="geometry" />
        </mxCell>
        <mxCell id="Hhs6KYRUo3cy5BL_Wlbw-20" value="ไม่" style="edgeLabel;html=1;align=center;verticalAlign=middle;resizable=0;points=[];" vertex="1" connectable="0" parent="Hhs6KYRUo3cy5BL_Wlbw-19">
          <mxGeometry x="-0.3745" relative="1" as="geometry">
            <mxPoint as="offset" />
          </mxGeometry>
        </mxCell>
        <mxCell id="Hhs6KYRUo3cy5BL_Wlbw-21" style="edgeStyle=orthogonalEdgeStyle;rounded=0;orthogonalLoop=1;jettySize=auto;html=1;entryX=0;entryY=0;entryDx=0;entryDy=0;" edge="1" parent="Hhs6KYRUo3cy5BL_Wlbw-1" source="Hhs6KYRUo3cy5BL_Wlbw-22" target="Hhs6KYRUo3cy5BL_Wlbw-7">
          <mxGeometry relative="1" as="geometry">
            <Array as="points">
              <mxPoint x="208" y="690" />
              <mxPoint x="237" y="690" />
            </Array>
          </mxGeometry>
        </mxCell>
        <mxCell id="Hhs6KYRUo3cy5BL_Wlbw-22" value="" style="ellipse;whiteSpace=wrap;html=1;aspect=fixed;" vertex="1" parent="Hhs6KYRUo3cy5BL_Wlbw-1">
          <mxGeometry x="183.75" y="560" width="30" height="30" as="geometry" />
        </mxCell>
        <mxCell id="Hhs6KYRUo3cy5BL_Wlbw-23" style="edgeStyle=orthogonalEdgeStyle;rounded=0;orthogonalLoop=1;jettySize=auto;html=1;" edge="1" parent="Hhs6KYRUo3cy5BL_Wlbw-1" source="Hhs6KYRUo3cy5BL_Wlbw-24" target="Hhs6KYRUo3cy5BL_Wlbw-22">
          <mxGeometry relative="1" as="geometry">
            <Array as="points">
              <mxPoint x="100" y="263" />
              <mxPoint x="100" y="580" />
            </Array>
          </mxGeometry>
        </mxCell>
        <mxCell id="Hhs6KYRUo3cy5BL_Wlbw-24" value="rerturn Error Code&amp;nbsp;001&lt;span style=&quot;font-size: medium; text-align: start;&quot;&gt;&lt;/span&gt;" style="rounded=1;whiteSpace=wrap;html=1;" vertex="1" parent="Hhs6KYRUo3cy5BL_Wlbw-1">
          <mxGeometry x="110" y="243" width="77.5" height="40" as="geometry" />
        </mxCell>
        <mxCell id="Hhs6KYRUo3cy5BL_Wlbw-25" style="edgeStyle=orthogonalEdgeStyle;rounded=0;orthogonalLoop=1;jettySize=auto;html=1;" edge="1" parent="Hhs6KYRUo3cy5BL_Wlbw-1" source="Hhs6KYRUo3cy5BL_Wlbw-13" target="Hhs6KYRUo3cy5BL_Wlbw-24">
          <mxGeometry relative="1" as="geometry">
            <mxPoint x="200.0999999999999" y="368" as="targetPoint" />
          </mxGeometry>
        </mxCell>
        <mxCell id="Hhs6KYRUo3cy5BL_Wlbw-26" value="ไม่" style="edgeLabel;html=1;align=center;verticalAlign=middle;resizable=0;points=[];" vertex="1" connectable="0" parent="Hhs6KYRUo3cy5BL_Wlbw-25">
          <mxGeometry x="-0.6573" y="2" relative="1" as="geometry">
            <mxPoint as="offset" />
          </mxGeometry>
        </mxCell>
        <mxCell id="Hhs6KYRUo3cy5BL_Wlbw-27" style="edgeStyle=orthogonalEdgeStyle;rounded=0;orthogonalLoop=1;jettySize=auto;html=1;entryX=0.5;entryY=0;entryDx=0;entryDy=0;" edge="1" parent="Hhs6KYRUo3cy5BL_Wlbw-1" source="Hhs6KYRUo3cy5BL_Wlbw-28" target="Hhs6KYRUo3cy5BL_Wlbw-22">
          <mxGeometry relative="1" as="geometry" />
        </mxCell>
        <mxCell id="Hhs6KYRUo3cy5BL_Wlbw-28" value="rerturn Error Code&amp;nbsp;011&lt;span style=&quot;font-size: medium; text-align: start;&quot;&gt;&lt;/span&gt;" style="rounded=1;whiteSpace=wrap;html=1;" vertex="1" parent="Hhs6KYRUo3cy5BL_Wlbw-1">
          <mxGeometry x="160" y="488" width="77.5" height="40" as="geometry" />
        </mxCell>
        <mxCell id="Hhs6KYRUo3cy5BL_Wlbw-29" value="" style="edgeStyle=orthogonalEdgeStyle;rounded=0;orthogonalLoop=1;jettySize=auto;html=1;" edge="1" parent="Hhs6KYRUo3cy5BL_Wlbw-1" source="Hhs6KYRUo3cy5BL_Wlbw-18" target="Hhs6KYRUo3cy5BL_Wlbw-28">
          <mxGeometry relative="1" as="geometry" />
        </mxCell>
        <mxCell id="Hhs6KYRUo3cy5BL_Wlbw-30" value="ใช่" style="edgeLabel;html=1;align=center;verticalAlign=middle;resizable=0;points=[];" vertex="1" connectable="0" parent="Hhs6KYRUo3cy5BL_Wlbw-29">
          <mxGeometry x="-0.4608" y="1" relative="1" as="geometry">
            <mxPoint as="offset" />
          </mxGeometry>
        </mxCell>
        <mxCell id="Hhs6KYRUo3cy5BL_Wlbw-31" style="edgeStyle=orthogonalEdgeStyle;rounded=0;orthogonalLoop=1;jettySize=auto;html=1;" edge="1" parent="Hhs6KYRUo3cy5BL_Wlbw-1" source="Hhs6KYRUo3cy5BL_Wlbw-32" target="Hhs6KYRUo3cy5BL_Wlbw-22">
          <mxGeometry relative="1" as="geometry">
            <mxPoint x="200" y="570" as="targetPoint" />
            <Array as="points">
              <mxPoint x="140" y="378" />
              <mxPoint x="140" y="564" />
            </Array>
          </mxGeometry>
        </mxCell>
        <mxCell id="Hhs6KYRUo3cy5BL_Wlbw-32" value="rerturn Error Code&amp;nbsp;004&lt;span style=&quot;font-size: medium; text-align: start;&quot;&gt;&lt;/span&gt;" style="rounded=1;whiteSpace=wrap;html=1;" vertex="1" parent="Hhs6KYRUo3cy5BL_Wlbw-1">
          <mxGeometry x="160" y="358" width="77.5" height="40" as="geometry" />
        </mxCell>
        <mxCell id="Hhs6KYRUo3cy5BL_Wlbw-33" value="" style="edgeStyle=orthogonalEdgeStyle;rounded=0;orthogonalLoop=1;jettySize=auto;html=1;" edge="1" parent="Hhs6KYRUo3cy5BL_Wlbw-1" source="Hhs6KYRUo3cy5BL_Wlbw-15" target="Hhs6KYRUo3cy5BL_Wlbw-32">
          <mxGeometry relative="1" as="geometry" />
        </mxCell>
        <mxCell id="Hhs6KYRUo3cy5BL_Wlbw-34" value="ใช่" style="edgeLabel;html=1;align=center;verticalAlign=middle;resizable=0;points=[];" vertex="1" connectable="0" parent="Hhs6KYRUo3cy5BL_Wlbw-33">
          <mxGeometry x="-0.4608" y="2" relative="1" as="geometry">
            <mxPoint as="offset" />
          </mxGeometry>
        </mxCell>
        <mxCell id="Hhs6KYRUo3cy5BL_Wlbw-35" value="ดึงข้อมูลเขตด้วย&lt;br&gt;รหัสอ้างอิงที่ได้รับ&lt;span style=&quot;font-size: medium; text-align: start;&quot;&gt;&lt;/span&gt;" style="rounded=1;whiteSpace=wrap;html=1;" vertex="1" parent="Hhs6KYRUo3cy5BL_Wlbw-1">
          <mxGeometry x="363" y="477" width="123.65" height="62" as="geometry" />
        </mxCell>
        <mxCell id="Hhs6KYRUo3cy5BL_Wlbw-36" value="" style="edgeStyle=orthogonalEdgeStyle;rounded=0;orthogonalLoop=1;jettySize=auto;html=1;" edge="1" parent="Hhs6KYRUo3cy5BL_Wlbw-1" source="Hhs6KYRUo3cy5BL_Wlbw-18" target="Hhs6KYRUo3cy5BL_Wlbw-35">
          <mxGeometry relative="1" as="geometry" />
        </mxCell>
        <mxCell id="Hhs6KYRUo3cy5BL_Wlbw-37" value="ส่งข้อมูลเขตกลับไป" style="rounded=1;whiteSpace=wrap;html=1;" vertex="1" parent="Hhs6KYRUo3cy5BL_Wlbw-1">
          <mxGeometry x="386.3499999999999" y="630" width="77.5" height="40" as="geometry" />
        </mxCell>
        <mxCell id="Hhs6KYRUo3cy5BL_Wlbw-38" style="edgeStyle=orthogonalEdgeStyle;rounded=0;orthogonalLoop=1;jettySize=auto;html=1;entryX=1;entryY=0.5;entryDx=0;entryDy=0;" edge="1" parent="Hhs6KYRUo3cy5BL_Wlbw-1" source="Hhs6KYRUo3cy5BL_Wlbw-40" target="Hhs6KYRUo3cy5BL_Wlbw-37">
          <mxGeometry relative="1" as="geometry">
            <Array as="points">
              <mxPoint x="560" y="650" />
            </Array>
          </mxGeometry>
        </mxCell>
        <mxCell id="Hhs6KYRUo3cy5BL_Wlbw-39" value="ใช่" style="edgeLabel;html=1;align=center;verticalAlign=middle;resizable=0;points=[];" vertex="1" connectable="0" parent="Hhs6KYRUo3cy5BL_Wlbw-38">
          <mxGeometry x="-0.7968" y="2" relative="1" as="geometry">
            <mxPoint as="offset" />
          </mxGeometry>
        </mxCell>
        <mxCell id="Hhs6KYRUo3cy5BL_Wlbw-40" value="มี ?" style="rhombus;whiteSpace=wrap;html=1;" vertex="1" parent="Hhs6KYRUo3cy5BL_Wlbw-1">
          <mxGeometry x="530" y="545" width="60" height="60" as="geometry" />
        </mxCell>
        <mxCell id="Hhs6KYRUo3cy5BL_Wlbw-41" value="" style="edgeStyle=orthogonalEdgeStyle;rounded=0;orthogonalLoop=1;jettySize=auto;html=1;" edge="1" parent="Hhs6KYRUo3cy5BL_Wlbw-1" source="Hhs6KYRUo3cy5BL_Wlbw-35" target="Hhs6KYRUo3cy5BL_Wlbw-40">
          <mxGeometry relative="1" as="geometry" />
        </mxCell>
        <mxCell id="Hhs6KYRUo3cy5BL_Wlbw-42" value="rerturn Error Code&amp;nbsp;022&lt;span style=&quot;font-size: medium; text-align: start;&quot;&gt;&lt;/span&gt;" style="rounded=1;whiteSpace=wrap;html=1;" vertex="1" parent="Hhs6KYRUo3cy5BL_Wlbw-1">
          <mxGeometry x="630" y="555" width="77.5" height="40" as="geometry" />
        </mxCell>
        <mxCell id="Hhs6KYRUo3cy5BL_Wlbw-43" value="" style="edgeStyle=orthogonalEdgeStyle;rounded=0;orthogonalLoop=1;jettySize=auto;html=1;" edge="1" parent="Hhs6KYRUo3cy5BL_Wlbw-1" source="Hhs6KYRUo3cy5BL_Wlbw-40" target="Hhs6KYRUo3cy5BL_Wlbw-42">
          <mxGeometry relative="1" as="geometry" />
        </mxCell>
        <mxCell id="Hhs6KYRUo3cy5BL_Wlbw-44" value="ไม่" style="edgeLabel;html=1;align=center;verticalAlign=middle;resizable=0;points=[];" vertex="1" connectable="0" parent="Hhs6KYRUo3cy5BL_Wlbw-43">
          <mxGeometry x="-0.1637" relative="1" as="geometry">
            <mxPoint as="offset" />
          </mxGeometry>
        </mxCell>
        <mxCell id="Hhs6KYRUo3cy5BL_Wlbw-45" style="edgeStyle=orthogonalEdgeStyle;rounded=0;orthogonalLoop=1;jettySize=auto;html=1;" edge="1" parent="Hhs6KYRUo3cy5BL_Wlbw-1" source="Hhs6KYRUo3cy5BL_Wlbw-46" target="Hhs6KYRUo3cy5BL_Wlbw-7">
          <mxGeometry relative="1" as="geometry" />
        </mxCell>
        <mxCell id="Hhs6KYRUo3cy5BL_Wlbw-46" value="" style="ellipse;whiteSpace=wrap;html=1;aspect=fixed;" vertex="1" parent="Hhs6KYRUo3cy5BL_Wlbw-1">
          <mxGeometry x="346" y="695" width="30" height="30" as="geometry" />
        </mxCell>
        <mxCell id="Hhs6KYRUo3cy5BL_Wlbw-47" style="edgeStyle=orthogonalEdgeStyle;rounded=0;orthogonalLoop=1;jettySize=auto;html=1;" edge="1" parent="Hhs6KYRUo3cy5BL_Wlbw-1" source="Hhs6KYRUo3cy5BL_Wlbw-37" target="Hhs6KYRUo3cy5BL_Wlbw-46">
          <mxGeometry relative="1" as="geometry" />
        </mxCell>
        <mxCell id="Hhs6KYRUo3cy5BL_Wlbw-48" style="edgeStyle=orthogonalEdgeStyle;rounded=0;orthogonalLoop=1;jettySize=auto;html=1;entryX=1;entryY=0.5;entryDx=0;entryDy=0;" edge="1" parent="Hhs6KYRUo3cy5BL_Wlbw-1" source="Hhs6KYRUo3cy5BL_Wlbw-42" target="Hhs6KYRUo3cy5BL_Wlbw-46">
          <mxGeometry relative="1" as="geometry">
            <mxPoint x="660" y="710" as="targetPoint" />
            <Array as="points">
              <mxPoint x="669" y="710" />
            </Array>
          </mxGeometry>
        </mxCell>
      </root>
    </mxGraphModel>
  </diagram>
  <diagram id="0HgynmRSOooPG_ZV4Ku0" name="หน้า-3">
    <mxGraphModel dx="1914" dy="1011" grid="1" gridSize="10" guides="1" tooltips="1" connect="1" arrows="1" fold="1" page="1" pageScale="1" pageWidth="827" pageHeight="1169" math="0" shadow="0">
      <root>
        <mxCell id="0" />
        <mxCell id="1" parent="0" />
        <mxCell id="3Yb76hzZ23xf90KfAX1W-1" value="" style="group" parent="1" vertex="1" connectable="0">
          <mxGeometry x="44" y="170" width="738.75" height="730" as="geometry" />
        </mxCell>
        <mxCell id="3Yb76hzZ23xf90KfAX1W-2" value="เริ่ม" style="ellipse;whiteSpace=wrap;html=1;" parent="3Yb76hzZ23xf90KfAX1W-1" vertex="1">
          <mxGeometry x="30" width="80" height="40" as="geometry" />
        </mxCell>
        <mxCell id="3Yb76hzZ23xf90KfAX1W-3" value="ตรวจสอบสิทธิ์การใช้งาน" style="rounded=1;whiteSpace=wrap;html=1;" parent="3Yb76hzZ23xf90KfAX1W-1" vertex="1">
          <mxGeometry y="80" width="140" height="30" as="geometry" />
        </mxCell>
        <mxCell id="3Yb76hzZ23xf90KfAX1W-4" value="" style="edgeStyle=orthogonalEdgeStyle;rounded=0;orthogonalLoop=1;jettySize=auto;html=1;" parent="3Yb76hzZ23xf90KfAX1W-1" source="3Yb76hzZ23xf90KfAX1W-2" target="3Yb76hzZ23xf90KfAX1W-3" edge="1">
          <mxGeometry relative="1" as="geometry" />
        </mxCell>
        <mxCell id="3Yb76hzZ23xf90KfAX1W-5" value="มี ?" style="rhombus;whiteSpace=wrap;html=1;" parent="3Yb76hzZ23xf90KfAX1W-1" vertex="1">
          <mxGeometry x="40" y="140" width="60" height="60" as="geometry" />
        </mxCell>
        <mxCell id="3Yb76hzZ23xf90KfAX1W-6" value="" style="edgeStyle=orthogonalEdgeStyle;rounded=0;orthogonalLoop=1;jettySize=auto;html=1;" parent="3Yb76hzZ23xf90KfAX1W-1" source="3Yb76hzZ23xf90KfAX1W-3" target="3Yb76hzZ23xf90KfAX1W-5" edge="1">
          <mxGeometry relative="1" as="geometry" />
        </mxCell>
        <mxCell id="3Yb76hzZ23xf90KfAX1W-7" value="สิ้นสุด" style="ellipse;whiteSpace=wrap;html=1;" parent="3Yb76hzZ23xf90KfAX1W-1" vertex="1">
          <mxGeometry x="225" y="690" width="80" height="40" as="geometry" />
        </mxCell>
        <mxCell id="3Yb76hzZ23xf90KfAX1W-8" style="edgeStyle=orthogonalEdgeStyle;rounded=0;orthogonalLoop=1;jettySize=auto;html=1;entryX=0;entryY=0.5;entryDx=0;entryDy=0;" parent="3Yb76hzZ23xf90KfAX1W-1" source="3Yb76hzZ23xf90KfAX1W-5" target="3Yb76hzZ23xf90KfAX1W-7" edge="1">
          <mxGeometry relative="1" as="geometry">
            <Array as="points">
              <mxPoint x="70" y="710" />
            </Array>
          </mxGeometry>
        </mxCell>
        <mxCell id="3Yb76hzZ23xf90KfAX1W-9" value="ไม่" style="edgeLabel;html=1;align=center;verticalAlign=middle;resizable=0;points=[];" parent="3Yb76hzZ23xf90KfAX1W-8" vertex="1" connectable="0">
          <mxGeometry x="-0.8925" y="1" relative="1" as="geometry">
            <mxPoint as="offset" />
          </mxGeometry>
        </mxCell>
        <mxCell id="3Yb76hzZ23xf90KfAX1W-10" value="ตรวจสอบ Account &lt;br&gt;สถานะการใช้งาน" style="rounded=1;whiteSpace=wrap;html=1;" parent="3Yb76hzZ23xf90KfAX1W-1" vertex="1">
          <mxGeometry x="275.9999999999999" y="150" width="170" height="40" as="geometry" />
        </mxCell>
        <mxCell id="3Yb76hzZ23xf90KfAX1W-11" value="" style="edgeStyle=orthogonalEdgeStyle;rounded=0;orthogonalLoop=1;jettySize=auto;html=1;" parent="3Yb76hzZ23xf90KfAX1W-1" source="3Yb76hzZ23xf90KfAX1W-5" target="3Yb76hzZ23xf90KfAX1W-10" edge="1">
          <mxGeometry relative="1" as="geometry">
            <Array as="points">
              <mxPoint x="180" y="170" />
              <mxPoint x="180" y="170" />
            </Array>
          </mxGeometry>
        </mxCell>
        <mxCell id="3Yb76hzZ23xf90KfAX1W-12" value="ใช่" style="edgeLabel;html=1;align=center;verticalAlign=middle;resizable=0;points=[];" parent="3Yb76hzZ23xf90KfAX1W-11" vertex="1" connectable="0">
          <mxGeometry x="-0.7797" y="-1" relative="1" as="geometry">
            <mxPoint as="offset" />
          </mxGeometry>
        </mxCell>
        <mxCell id="3Yb76hzZ23xf90KfAX1W-13" value="" style="edgeStyle=orthogonalEdgeStyle;rounded=0;orthogonalLoop=1;jettySize=auto;html=1;" parent="3Yb76hzZ23xf90KfAX1W-1" source="3Yb76hzZ23xf90KfAX1W-10" target="3Yb76hzZ23xf90KfAX1W-17" edge="1">
          <mxGeometry relative="1" as="geometry" />
        </mxCell>
        <mxCell id="3Yb76hzZ23xf90KfAX1W-14" style="edgeStyle=orthogonalEdgeStyle;rounded=0;orthogonalLoop=1;jettySize=auto;html=1;entryX=0;entryY=0;entryDx=0;entryDy=0;" parent="3Yb76hzZ23xf90KfAX1W-1" target="3Yb76hzZ23xf90KfAX1W-7" edge="1">
          <mxGeometry relative="1" as="geometry">
            <Array as="points">
              <mxPoint x="208" y="690" />
              <mxPoint x="237" y="690" />
            </Array>
            <mxPoint x="160" y="680" as="sourcePoint" />
          </mxGeometry>
        </mxCell>
        <mxCell id="3Yb76hzZ23xf90KfAX1W-15" value="" style="ellipse;whiteSpace=wrap;html=1;aspect=fixed;" parent="3Yb76hzZ23xf90KfAX1W-1" vertex="1">
          <mxGeometry x="137.5" y="660" width="30" height="30" as="geometry" />
        </mxCell>
        <mxCell id="3Yb76hzZ23xf90KfAX1W-16" style="edgeStyle=orthogonalEdgeStyle;rounded=0;orthogonalLoop=1;jettySize=auto;html=1;entryX=0;entryY=0.5;entryDx=0;entryDy=0;" parent="3Yb76hzZ23xf90KfAX1W-1" source="3Yb76hzZ23xf90KfAX1W-40" target="3Yb76hzZ23xf90KfAX1W-15" edge="1">
          <mxGeometry relative="1" as="geometry">
            <mxPoint x="106.25" y="323" as="sourcePoint" />
            <Array as="points">
              <mxPoint x="90" y="323" />
              <mxPoint x="90" y="680" />
              <mxPoint x="138" y="680" />
            </Array>
          </mxGeometry>
        </mxCell>
        <mxCell id="3Yb76hzZ23xf90KfAX1W-17" value="มีใน&lt;br&gt;ระบบ &lt;br&gt;?" style="rhombus;whiteSpace=wrap;html=1;" parent="3Yb76hzZ23xf90KfAX1W-1" vertex="1">
          <mxGeometry x="323.94999999999993" y="228" width="75" height="70" as="geometry" />
        </mxCell>
        <mxCell id="3Yb76hzZ23xf90KfAX1W-18" value="status&lt;br style=&quot;border-color: var(--border-color);&quot;&gt;= 1 ?" style="rhombus;whiteSpace=wrap;html=1;" parent="3Yb76hzZ23xf90KfAX1W-1" vertex="1">
          <mxGeometry x="331.44999999999993" y="348" width="60" height="60" as="geometry" />
        </mxCell>
        <mxCell id="3Yb76hzZ23xf90KfAX1W-19" value="" style="edgeStyle=orthogonalEdgeStyle;rounded=0;orthogonalLoop=1;jettySize=auto;html=1;" parent="3Yb76hzZ23xf90KfAX1W-1" source="3Yb76hzZ23xf90KfAX1W-17" target="3Yb76hzZ23xf90KfAX1W-18" edge="1">
          <mxGeometry relative="1" as="geometry" />
        </mxCell>
        <mxCell id="3Yb76hzZ23xf90KfAX1W-20" value="ใช่" style="edgeLabel;html=1;align=center;verticalAlign=middle;resizable=0;points=[];" parent="3Yb76hzZ23xf90KfAX1W-19" vertex="1" connectable="0">
          <mxGeometry x="-0.3254" y="2" relative="1" as="geometry">
            <mxPoint x="-2" as="offset" />
          </mxGeometry>
        </mxCell>
        <mxCell id="3Yb76hzZ23xf90KfAX1W-21" value="Locked&lt;br style=&quot;border-color: var(--border-color);&quot;&gt;= 1 ?&amp;nbsp;" style="rhombus;whiteSpace=wrap;html=1;" parent="3Yb76hzZ23xf90KfAX1W-1" vertex="1">
          <mxGeometry x="331.44999999999993" y="478" width="60" height="60" as="geometry" />
        </mxCell>
        <mxCell id="3Yb76hzZ23xf90KfAX1W-22" value="" style="edgeStyle=orthogonalEdgeStyle;rounded=0;orthogonalLoop=1;jettySize=auto;html=1;" parent="3Yb76hzZ23xf90KfAX1W-1" source="3Yb76hzZ23xf90KfAX1W-18" target="3Yb76hzZ23xf90KfAX1W-21" edge="1">
          <mxGeometry relative="1" as="geometry" />
        </mxCell>
        <mxCell id="3Yb76hzZ23xf90KfAX1W-23" value="ไม่" style="edgeLabel;html=1;align=center;verticalAlign=middle;resizable=0;points=[];" parent="3Yb76hzZ23xf90KfAX1W-22" vertex="1" connectable="0">
          <mxGeometry x="-0.3745" relative="1" as="geometry">
            <mxPoint as="offset" />
          </mxGeometry>
        </mxCell>
        <mxCell id="3Yb76hzZ23xf90KfAX1W-24" style="edgeStyle=orthogonalEdgeStyle;rounded=0;orthogonalLoop=1;jettySize=auto;html=1;" parent="3Yb76hzZ23xf90KfAX1W-1" source="3Yb76hzZ23xf90KfAX1W-17" target="3Yb76hzZ23xf90KfAX1W-32" edge="1">
          <mxGeometry relative="1" as="geometry">
            <mxPoint x="257.6" y="263" as="targetPoint" />
          </mxGeometry>
        </mxCell>
        <mxCell id="3Yb76hzZ23xf90KfAX1W-25" value="ไม่" style="edgeLabel;html=1;align=center;verticalAlign=middle;resizable=0;points=[];" parent="3Yb76hzZ23xf90KfAX1W-24" vertex="1" connectable="0">
          <mxGeometry x="-0.6573" y="2" relative="1" as="geometry">
            <mxPoint as="offset" />
          </mxGeometry>
        </mxCell>
        <mxCell id="3Yb76hzZ23xf90KfAX1W-26" style="edgeStyle=orthogonalEdgeStyle;rounded=0;orthogonalLoop=1;jettySize=auto;html=1;entryX=0.5;entryY=0;entryDx=0;entryDy=0;" parent="3Yb76hzZ23xf90KfAX1W-1" source="3Yb76hzZ23xf90KfAX1W-27" target="3Yb76hzZ23xf90KfAX1W-15" edge="1">
          <mxGeometry relative="1" as="geometry" />
        </mxCell>
        <mxCell id="3Yb76hzZ23xf90KfAX1W-27" value="rerturn Error Code&amp;nbsp;011&lt;span style=&quot;font-size: medium; text-align: start;&quot;&gt;&lt;/span&gt;" style="rounded=1;whiteSpace=wrap;html=1;" parent="3Yb76hzZ23xf90KfAX1W-1" vertex="1">
          <mxGeometry x="207.5" y="600" width="77.5" height="40" as="geometry" />
        </mxCell>
        <mxCell id="3Yb76hzZ23xf90KfAX1W-28" value="ตรวจสอบว่า ProvinceCode &lt;br&gt;มีในฐานข้อมูลไหม" style="rounded=1;whiteSpace=wrap;html=1;" parent="3Yb76hzZ23xf90KfAX1W-1" vertex="1">
          <mxGeometry x="480" y="232" width="123.65" height="62" as="geometry" />
        </mxCell>
        <mxCell id="3Yb76hzZ23xf90KfAX1W-29" value="" style="edgeStyle=orthogonalEdgeStyle;rounded=0;orthogonalLoop=1;jettySize=auto;html=1;" parent="3Yb76hzZ23xf90KfAX1W-1" source="3Yb76hzZ23xf90KfAX1W-21" target="3Yb76hzZ23xf90KfAX1W-28" edge="1">
          <mxGeometry relative="1" as="geometry">
            <Array as="points">
              <mxPoint x="410" y="508" />
              <mxPoint x="410" y="263" />
            </Array>
          </mxGeometry>
        </mxCell>
        <mxCell id="3Yb76hzZ23xf90KfAX1W-30" value="ไม่" style="edgeLabel;html=1;align=center;verticalAlign=middle;resizable=0;points=[];" parent="3Yb76hzZ23xf90KfAX1W-29" vertex="1" connectable="0">
          <mxGeometry x="0.1426" y="-1" relative="1" as="geometry">
            <mxPoint as="offset" />
          </mxGeometry>
        </mxCell>
        <mxCell id="3Yb76hzZ23xf90KfAX1W-31" value="" style="edgeStyle=orthogonalEdgeStyle;rounded=0;orthogonalLoop=1;jettySize=auto;html=1;" parent="3Yb76hzZ23xf90KfAX1W-1" source="3Yb76hzZ23xf90KfAX1W-28" target="3Yb76hzZ23xf90KfAX1W-51" edge="1">
          <mxGeometry relative="1" as="geometry">
            <Array as="points">
              <mxPoint x="665" y="260" />
            </Array>
          </mxGeometry>
        </mxCell>
        <mxCell id="3Yb76hzZ23xf90KfAX1W-32" value="สร้างข้อมูล ActivityLog&lt;span style=&quot;font-size: medium; text-align: start;&quot;&gt;&lt;/span&gt;" style="rounded=1;whiteSpace=wrap;html=1;" parent="3Yb76hzZ23xf90KfAX1W-1" vertex="1">
          <mxGeometry x="207.5" y="243" width="77.5" height="40" as="geometry" />
        </mxCell>
        <mxCell id="3Yb76hzZ23xf90KfAX1W-33" style="edgeStyle=orthogonalEdgeStyle;rounded=0;orthogonalLoop=1;jettySize=auto;html=1;entryX=0;entryY=0;entryDx=0;entryDy=0;" parent="3Yb76hzZ23xf90KfAX1W-1" source="3Yb76hzZ23xf90KfAX1W-34" target="3Yb76hzZ23xf90KfAX1W-15" edge="1">
          <mxGeometry relative="1" as="geometry">
            <Array as="points">
              <mxPoint x="100" y="440" />
              <mxPoint x="100" y="664" />
              <mxPoint x="142" y="664" />
            </Array>
          </mxGeometry>
        </mxCell>
        <mxCell id="3Yb76hzZ23xf90KfAX1W-34" value="rerturn Error Code&amp;nbsp;004&lt;span style=&quot;font-size: medium; text-align: start;&quot;&gt;&lt;/span&gt;" style="rounded=1;whiteSpace=wrap;html=1;" parent="3Yb76hzZ23xf90KfAX1W-1" vertex="1">
          <mxGeometry x="106.25" y="420" width="77.5" height="40" as="geometry" />
        </mxCell>
        <mxCell id="3Yb76hzZ23xf90KfAX1W-35" value="สร้างข้อมูล ActivityLog&lt;span style=&quot;font-size: medium; text-align: start;&quot;&gt;&lt;/span&gt;" style="rounded=1;whiteSpace=wrap;html=1;" parent="3Yb76hzZ23xf90KfAX1W-1" vertex="1">
          <mxGeometry x="207.5" y="358" width="77.5" height="40" as="geometry" />
        </mxCell>
        <mxCell id="3Yb76hzZ23xf90KfAX1W-36" value="" style="edgeStyle=orthogonalEdgeStyle;rounded=0;orthogonalLoop=1;jettySize=auto;html=1;" parent="3Yb76hzZ23xf90KfAX1W-1" source="3Yb76hzZ23xf90KfAX1W-18" target="3Yb76hzZ23xf90KfAX1W-35" edge="1">
          <mxGeometry relative="1" as="geometry" />
        </mxCell>
        <mxCell id="3Yb76hzZ23xf90KfAX1W-37" value="ใช่" style="edgeLabel;html=1;align=center;verticalAlign=middle;resizable=0;points=[];" parent="3Yb76hzZ23xf90KfAX1W-36" vertex="1" connectable="0">
          <mxGeometry x="-0.1729" relative="1" as="geometry">
            <mxPoint as="offset" />
          </mxGeometry>
        </mxCell>
        <mxCell id="3Yb76hzZ23xf90KfAX1W-38" value="บันทึกข้อมูล&lt;span style=&quot;font-size: medium; text-align: start;&quot;&gt;&lt;/span&gt;" style="rounded=1;whiteSpace=wrap;html=1;" parent="3Yb76hzZ23xf90KfAX1W-1" vertex="1">
          <mxGeometry x="110" y="243" width="77.5" height="40" as="geometry" />
        </mxCell>
        <mxCell id="3Yb76hzZ23xf90KfAX1W-39" value="" style="edgeStyle=orthogonalEdgeStyle;rounded=0;orthogonalLoop=1;jettySize=auto;html=1;" parent="3Yb76hzZ23xf90KfAX1W-1" source="3Yb76hzZ23xf90KfAX1W-32" target="3Yb76hzZ23xf90KfAX1W-38" edge="1">
          <mxGeometry relative="1" as="geometry" />
        </mxCell>
        <mxCell id="3Yb76hzZ23xf90KfAX1W-40" value="rerturn Error Code&amp;nbsp;001&lt;span style=&quot;font-size: medium; text-align: start;&quot;&gt;&lt;/span&gt;" style="rounded=1;whiteSpace=wrap;html=1;" parent="3Yb76hzZ23xf90KfAX1W-1" vertex="1">
          <mxGeometry x="110" y="308" width="77.5" height="40" as="geometry" />
        </mxCell>
        <mxCell id="3Yb76hzZ23xf90KfAX1W-41" value="" style="edgeStyle=orthogonalEdgeStyle;rounded=0;orthogonalLoop=1;jettySize=auto;html=1;" parent="3Yb76hzZ23xf90KfAX1W-1" source="3Yb76hzZ23xf90KfAX1W-38" target="3Yb76hzZ23xf90KfAX1W-40" edge="1">
          <mxGeometry relative="1" as="geometry" />
        </mxCell>
        <mxCell id="3Yb76hzZ23xf90KfAX1W-42" value="" style="edgeStyle=orthogonalEdgeStyle;rounded=0;orthogonalLoop=1;jettySize=auto;html=1;" parent="3Yb76hzZ23xf90KfAX1W-1" source="3Yb76hzZ23xf90KfAX1W-43" target="3Yb76hzZ23xf90KfAX1W-34" edge="1">
          <mxGeometry relative="1" as="geometry" />
        </mxCell>
        <mxCell id="3Yb76hzZ23xf90KfAX1W-43" value="บันทึกข้อมูล&lt;span style=&quot;font-size: medium; text-align: start;&quot;&gt;&lt;/span&gt;" style="rounded=1;whiteSpace=wrap;html=1;" parent="3Yb76hzZ23xf90KfAX1W-1" vertex="1">
          <mxGeometry x="207.5" y="420" width="77.5" height="40" as="geometry" />
        </mxCell>
        <mxCell id="3Yb76hzZ23xf90KfAX1W-44" value="" style="edgeStyle=orthogonalEdgeStyle;rounded=0;orthogonalLoop=1;jettySize=auto;html=1;" parent="3Yb76hzZ23xf90KfAX1W-1" source="3Yb76hzZ23xf90KfAX1W-35" target="3Yb76hzZ23xf90KfAX1W-43" edge="1">
          <mxGeometry relative="1" as="geometry" />
        </mxCell>
        <mxCell id="3Yb76hzZ23xf90KfAX1W-45" value="สร้างข้อมูล ActivityLog&lt;span style=&quot;font-size: medium; text-align: start;&quot;&gt;&lt;/span&gt;" style="rounded=1;whiteSpace=wrap;html=1;" parent="3Yb76hzZ23xf90KfAX1W-1" vertex="1">
          <mxGeometry x="207.5" y="488" width="77.5" height="40" as="geometry" />
        </mxCell>
        <mxCell id="3Yb76hzZ23xf90KfAX1W-46" value="" style="edgeStyle=orthogonalEdgeStyle;rounded=0;orthogonalLoop=1;jettySize=auto;html=1;" parent="3Yb76hzZ23xf90KfAX1W-1" source="3Yb76hzZ23xf90KfAX1W-21" target="3Yb76hzZ23xf90KfAX1W-45" edge="1">
          <mxGeometry relative="1" as="geometry" />
        </mxCell>
        <mxCell id="3Yb76hzZ23xf90KfAX1W-47" value="ใช่" style="edgeLabel;html=1;align=center;verticalAlign=middle;resizable=0;points=[];" parent="3Yb76hzZ23xf90KfAX1W-46" vertex="1" connectable="0">
          <mxGeometry x="-0.1659" y="-1" relative="1" as="geometry">
            <mxPoint as="offset" />
          </mxGeometry>
        </mxCell>
        <mxCell id="3Yb76hzZ23xf90KfAX1W-48" value="" style="edgeStyle=orthogonalEdgeStyle;rounded=0;orthogonalLoop=1;jettySize=auto;html=1;" parent="3Yb76hzZ23xf90KfAX1W-1" source="3Yb76hzZ23xf90KfAX1W-49" target="3Yb76hzZ23xf90KfAX1W-27" edge="1">
          <mxGeometry relative="1" as="geometry" />
        </mxCell>
        <mxCell id="3Yb76hzZ23xf90KfAX1W-49" value="บันทึกข้อมูล&lt;span style=&quot;font-size: medium; text-align: start;&quot;&gt;&lt;/span&gt;" style="rounded=1;whiteSpace=wrap;html=1;" parent="3Yb76hzZ23xf90KfAX1W-1" vertex="1">
          <mxGeometry x="207.5" y="545" width="77.5" height="40" as="geometry" />
        </mxCell>
        <mxCell id="3Yb76hzZ23xf90KfAX1W-50" value="" style="edgeStyle=orthogonalEdgeStyle;rounded=0;orthogonalLoop=1;jettySize=auto;html=1;" parent="3Yb76hzZ23xf90KfAX1W-1" source="3Yb76hzZ23xf90KfAX1W-45" target="3Yb76hzZ23xf90KfAX1W-49" edge="1">
          <mxGeometry relative="1" as="geometry" />
        </mxCell>
        <mxCell id="3Yb76hzZ23xf90KfAX1W-51" value="มี ?" style="rhombus;whiteSpace=wrap;html=1;" parent="3Yb76hzZ23xf90KfAX1W-1" vertex="1">
          <mxGeometry x="634.9" y="330" width="60" height="60" as="geometry" />
        </mxCell>
        <mxCell id="3Yb76hzZ23xf90KfAX1W-52" value="rerturn Error Code&amp;nbsp;016&lt;span style=&quot;font-size: medium; text-align: start;&quot;&gt;&lt;/span&gt;" style="rounded=1;whiteSpace=wrap;html=1;" parent="3Yb76hzZ23xf90KfAX1W-1" vertex="1">
          <mxGeometry x="426.35" y="410" width="77.5" height="40" as="geometry" />
        </mxCell>
        <mxCell id="3Yb76hzZ23xf90KfAX1W-53" style="edgeStyle=orthogonalEdgeStyle;rounded=0;orthogonalLoop=1;jettySize=auto;html=1;entryX=0.5;entryY=0;entryDx=0;entryDy=0;" parent="3Yb76hzZ23xf90KfAX1W-1" source="3Yb76hzZ23xf90KfAX1W-52" target="3Yb76hzZ23xf90KfAX1W-61" edge="1">
          <mxGeometry relative="1" as="geometry">
            <mxPoint x="465.9000000000001" y="480" as="targetPoint" />
            <Array as="points">
              <mxPoint x="465" y="550" />
              <mxPoint x="360" y="550" />
            </Array>
          </mxGeometry>
        </mxCell>
        <mxCell id="3Yb76hzZ23xf90KfAX1W-54" value="สร้างข้อมูล ActivityLog&lt;span style=&quot;font-size: medium; text-align: start;&quot;&gt;&lt;/span&gt;" style="rounded=1;whiteSpace=wrap;html=1;" parent="3Yb76hzZ23xf90KfAX1W-1" vertex="1">
          <mxGeometry x="528" y="340" width="77.5" height="40" as="geometry" />
        </mxCell>
        <mxCell id="3Yb76hzZ23xf90KfAX1W-55" style="edgeStyle=orthogonalEdgeStyle;rounded=0;orthogonalLoop=1;jettySize=auto;html=1;entryX=0.5;entryY=0;entryDx=0;entryDy=0;" parent="3Yb76hzZ23xf90KfAX1W-1" source="3Yb76hzZ23xf90KfAX1W-56" target="3Yb76hzZ23xf90KfAX1W-52" edge="1">
          <mxGeometry relative="1" as="geometry" />
        </mxCell>
        <mxCell id="3Yb76hzZ23xf90KfAX1W-56" value="บันทึกข้อมูล&lt;span style=&quot;font-size: medium; text-align: start;&quot;&gt;&lt;/span&gt;" style="rounded=1;whiteSpace=wrap;html=1;" parent="3Yb76hzZ23xf90KfAX1W-1" vertex="1">
          <mxGeometry x="426.35" y="340" width="77.5" height="40" as="geometry" />
        </mxCell>
        <mxCell id="3Yb76hzZ23xf90KfAX1W-57" value="" style="edgeStyle=orthogonalEdgeStyle;rounded=0;orthogonalLoop=1;jettySize=auto;html=1;" parent="3Yb76hzZ23xf90KfAX1W-1" source="3Yb76hzZ23xf90KfAX1W-51" target="3Yb76hzZ23xf90KfAX1W-54" edge="1">
          <mxGeometry relative="1" as="geometry" />
        </mxCell>
        <mxCell id="3Yb76hzZ23xf90KfAX1W-58" value="ไม่" style="edgeLabel;html=1;align=center;verticalAlign=middle;resizable=0;points=[];" parent="3Yb76hzZ23xf90KfAX1W-57" vertex="1" connectable="0">
          <mxGeometry x="0.2439" relative="1" as="geometry">
            <mxPoint as="offset" />
          </mxGeometry>
        </mxCell>
        <mxCell id="3Yb76hzZ23xf90KfAX1W-59" value="" style="edgeStyle=orthogonalEdgeStyle;rounded=0;orthogonalLoop=1;jettySize=auto;html=1;" parent="3Yb76hzZ23xf90KfAX1W-1" source="3Yb76hzZ23xf90KfAX1W-54" target="3Yb76hzZ23xf90KfAX1W-56" edge="1">
          <mxGeometry relative="1" as="geometry" />
        </mxCell>
        <mxCell id="3Yb76hzZ23xf90KfAX1W-60" style="edgeStyle=orthogonalEdgeStyle;rounded=0;orthogonalLoop=1;jettySize=auto;html=1;entryX=1;entryY=0;entryDx=0;entryDy=0;" parent="3Yb76hzZ23xf90KfAX1W-1" source="3Yb76hzZ23xf90KfAX1W-61" target="3Yb76hzZ23xf90KfAX1W-7" edge="1">
          <mxGeometry relative="1" as="geometry" />
        </mxCell>
        <mxCell id="3Yb76hzZ23xf90KfAX1W-61" value="" style="ellipse;whiteSpace=wrap;html=1;aspect=fixed;" parent="3Yb76hzZ23xf90KfAX1W-1" vertex="1">
          <mxGeometry x="345" y="675" width="30" height="30" as="geometry" />
        </mxCell>
        <mxCell id="3Yb76hzZ23xf90KfAX1W-62" value="ตรวจสอบว่า DistrictCode &lt;br&gt;มีซ้ำในฐานข้อมูลไหม" style="rounded=1;whiteSpace=wrap;html=1;" parent="3Yb76hzZ23xf90KfAX1W-1" vertex="1">
          <mxGeometry x="539.99" y="430" width="123.65" height="62" as="geometry" />
        </mxCell>
        <mxCell id="3Yb76hzZ23xf90KfAX1W-63" style="edgeStyle=orthogonalEdgeStyle;rounded=0;orthogonalLoop=1;jettySize=auto;html=1;entryX=0.5;entryY=0;entryDx=0;entryDy=0;" parent="3Yb76hzZ23xf90KfAX1W-1" source="3Yb76hzZ23xf90KfAX1W-51" target="3Yb76hzZ23xf90KfAX1W-62" edge="1">
          <mxGeometry relative="1" as="geometry">
            <mxPoint x="664.9000000000001" y="430" as="targetPoint" />
          </mxGeometry>
        </mxCell>
        <mxCell id="3Yb76hzZ23xf90KfAX1W-64" value="" style="edgeStyle=orthogonalEdgeStyle;rounded=0;orthogonalLoop=1;jettySize=auto;html=1;" parent="3Yb76hzZ23xf90KfAX1W-1" source="3Yb76hzZ23xf90KfAX1W-65" target="3Yb76hzZ23xf90KfAX1W-61" edge="1">
          <mxGeometry relative="1" as="geometry">
            <Array as="points">
              <mxPoint x="499" y="690" />
            </Array>
          </mxGeometry>
        </mxCell>
        <mxCell id="3Yb76hzZ23xf90KfAX1W-65" value="rerturn Error Code&amp;nbsp;022&lt;span style=&quot;font-size: medium; text-align: start;&quot;&gt;&lt;/span&gt;" style="rounded=1;whiteSpace=wrap;html=1;" parent="3Yb76hzZ23xf90KfAX1W-1" vertex="1">
          <mxGeometry x="460" y="630" width="77.5" height="40" as="geometry" />
        </mxCell>
        <mxCell id="3Yb76hzZ23xf90KfAX1W-66" value="สร้างข้อมูล ActivityLog&lt;span style=&quot;font-size: medium; text-align: start;&quot;&gt;&lt;/span&gt;" style="rounded=1;whiteSpace=wrap;html=1;" parent="3Yb76hzZ23xf90KfAX1W-1" vertex="1">
          <mxGeometry x="563.0699999999999" y="560" width="77.5" height="40" as="geometry" />
        </mxCell>
        <mxCell id="3Yb76hzZ23xf90KfAX1W-67" style="edgeStyle=orthogonalEdgeStyle;rounded=0;orthogonalLoop=1;jettySize=auto;html=1;entryX=0.5;entryY=0;entryDx=0;entryDy=0;" parent="3Yb76hzZ23xf90KfAX1W-1" source="3Yb76hzZ23xf90KfAX1W-68" target="3Yb76hzZ23xf90KfAX1W-65" edge="1">
          <mxGeometry relative="1" as="geometry" />
        </mxCell>
        <mxCell id="3Yb76hzZ23xf90KfAX1W-68" value="บันทึกข้อมูล&lt;span style=&quot;font-size: medium; text-align: start;&quot;&gt;&lt;/span&gt;" style="rounded=1;whiteSpace=wrap;html=1;" parent="3Yb76hzZ23xf90KfAX1W-1" vertex="1">
          <mxGeometry x="460" y="560" width="77.5" height="40" as="geometry" />
        </mxCell>
        <mxCell id="3Yb76hzZ23xf90KfAX1W-69" value="" style="edgeStyle=orthogonalEdgeStyle;rounded=0;orthogonalLoop=1;jettySize=auto;html=1;" parent="3Yb76hzZ23xf90KfAX1W-1" source="3Yb76hzZ23xf90KfAX1W-66" target="3Yb76hzZ23xf90KfAX1W-68" edge="1">
          <mxGeometry relative="1" as="geometry" />
        </mxCell>
        <mxCell id="3Yb76hzZ23xf90KfAX1W-70" style="edgeStyle=orthogonalEdgeStyle;rounded=0;orthogonalLoop=1;jettySize=auto;html=1;entryX=0.5;entryY=0;entryDx=0;entryDy=0;" parent="3Yb76hzZ23xf90KfAX1W-1" source="3Yb76hzZ23xf90KfAX1W-72" target="3Yb76hzZ23xf90KfAX1W-66" edge="1">
          <mxGeometry relative="1" as="geometry" />
        </mxCell>
        <mxCell id="3Yb76hzZ23xf90KfAX1W-71" value="ใช่" style="edgeLabel;html=1;align=center;verticalAlign=middle;resizable=0;points=[];" parent="3Yb76hzZ23xf90KfAX1W-70" vertex="1" connectable="0">
          <mxGeometry x="-0.5983" y="-2" relative="1" as="geometry">
            <mxPoint as="offset" />
          </mxGeometry>
        </mxCell>
        <mxCell id="3Yb76hzZ23xf90KfAX1W-72" value="มี ?" style="rhombus;whiteSpace=wrap;html=1;" parent="3Yb76hzZ23xf90KfAX1W-1" vertex="1">
          <mxGeometry x="670" y="488" width="60" height="60" as="geometry" />
        </mxCell>
        <mxCell id="3Yb76hzZ23xf90KfAX1W-73" value="" style="edgeStyle=orthogonalEdgeStyle;rounded=0;orthogonalLoop=1;jettySize=auto;html=1;entryX=0.5;entryY=0;entryDx=0;entryDy=0;" parent="3Yb76hzZ23xf90KfAX1W-1" source="3Yb76hzZ23xf90KfAX1W-62" target="3Yb76hzZ23xf90KfAX1W-72" edge="1">
          <mxGeometry relative="1" as="geometry" />
        </mxCell>
        <mxCell id="3Yb76hzZ23xf90KfAX1W-74" value="สร้างข้อมูลเขต" style="rounded=1;whiteSpace=wrap;html=1;" parent="3Yb76hzZ23xf90KfAX1W-1" vertex="1">
          <mxGeometry x="661.25" y="580" width="77.5" height="40" as="geometry" />
        </mxCell>
        <mxCell id="3Yb76hzZ23xf90KfAX1W-75" style="edgeStyle=orthogonalEdgeStyle;rounded=0;orthogonalLoop=1;jettySize=auto;html=1;" parent="3Yb76hzZ23xf90KfAX1W-1" source="3Yb76hzZ23xf90KfAX1W-72" target="3Yb76hzZ23xf90KfAX1W-74" edge="1">
          <mxGeometry relative="1" as="geometry" />
        </mxCell>
        <mxCell id="3Yb76hzZ23xf90KfAX1W-76" value="ไม่" style="edgeLabel;html=1;align=center;verticalAlign=middle;resizable=0;points=[];" parent="3Yb76hzZ23xf90KfAX1W-75" vertex="1" connectable="0">
          <mxGeometry x="-0.3103" y="-1" relative="1" as="geometry">
            <mxPoint y="2" as="offset" />
          </mxGeometry>
        </mxCell>
        <mxCell id="3Yb76hzZ23xf90KfAX1W-77" value="สร้างข้อมูล ActivityLog&lt;span style=&quot;font-size: medium; text-align: start;&quot;&gt;&lt;/span&gt;" style="rounded=1;whiteSpace=wrap;html=1;" parent="3Yb76hzZ23xf90KfAX1W-1" vertex="1">
          <mxGeometry x="661.2499999999999" y="640" width="77.5" height="40" as="geometry" />
        </mxCell>
        <mxCell id="3Yb76hzZ23xf90KfAX1W-78" style="edgeStyle=orthogonalEdgeStyle;rounded=0;orthogonalLoop=1;jettySize=auto;html=1;" parent="3Yb76hzZ23xf90KfAX1W-1" source="3Yb76hzZ23xf90KfAX1W-74" target="3Yb76hzZ23xf90KfAX1W-77" edge="1">
          <mxGeometry relative="1" as="geometry" />
        </mxCell>
        <mxCell id="3Yb76hzZ23xf90KfAX1W-79" style="edgeStyle=orthogonalEdgeStyle;rounded=0;orthogonalLoop=1;jettySize=auto;html=1;entryX=1;entryY=1;entryDx=0;entryDy=0;" parent="3Yb76hzZ23xf90KfAX1W-1" source="3Yb76hzZ23xf90KfAX1W-80" target="3Yb76hzZ23xf90KfAX1W-61" edge="1">
          <mxGeometry relative="1" as="geometry" />
        </mxCell>
        <mxCell id="3Yb76hzZ23xf90KfAX1W-80" value="บันทึกข้อมูล&lt;span style=&quot;font-size: medium; text-align: start;&quot;&gt;&lt;/span&gt;" style="rounded=1;whiteSpace=wrap;html=1;" parent="3Yb76hzZ23xf90KfAX1W-1" vertex="1">
          <mxGeometry x="570" y="690" width="77.5" height="40" as="geometry" />
        </mxCell>
        <mxCell id="3Yb76hzZ23xf90KfAX1W-81" style="edgeStyle=orthogonalEdgeStyle;rounded=0;orthogonalLoop=1;jettySize=auto;html=1;entryX=1;entryY=0.5;entryDx=0;entryDy=0;" parent="3Yb76hzZ23xf90KfAX1W-1" source="3Yb76hzZ23xf90KfAX1W-77" target="3Yb76hzZ23xf90KfAX1W-80" edge="1">
          <mxGeometry relative="1" as="geometry">
            <Array as="points">
              <mxPoint x="700" y="710" />
            </Array>
          </mxGeometry>
        </mxCell>
      </root>
    </mxGraphModel>
  </diagram>
  <diagram id="1FUrk30S0qJx7T26HVfz" name="หน้า-4">
    <mxGraphModel dx="1531" dy="809" grid="1" gridSize="10" guides="1" tooltips="1" connect="1" arrows="1" fold="1" page="1" pageScale="1" pageWidth="827" pageHeight="1169" math="0" shadow="0">
      <root>
        <mxCell id="0" />
        <mxCell id="1" parent="0" />
        <mxCell id="vhbVeEwdIL8ZAVxbIWr5-1" value="" style="group" parent="1" vertex="1" connectable="0">
          <mxGeometry x="32" y="110" width="763.75" height="876" as="geometry" />
        </mxCell>
        <mxCell id="vhbVeEwdIL8ZAVxbIWr5-2" value="เริ่ม" style="ellipse;whiteSpace=wrap;html=1;" parent="vhbVeEwdIL8ZAVxbIWr5-1" vertex="1">
          <mxGeometry x="30" width="80" height="40" as="geometry" />
        </mxCell>
        <mxCell id="vhbVeEwdIL8ZAVxbIWr5-3" value="ตรวจสอบสิทธิ์การใช้งาน" style="rounded=1;whiteSpace=wrap;html=1;" parent="vhbVeEwdIL8ZAVxbIWr5-1" vertex="1">
          <mxGeometry y="80" width="140" height="30" as="geometry" />
        </mxCell>
        <mxCell id="vhbVeEwdIL8ZAVxbIWr5-4" value="" style="edgeStyle=orthogonalEdgeStyle;rounded=0;orthogonalLoop=1;jettySize=auto;html=1;" parent="vhbVeEwdIL8ZAVxbIWr5-1" source="vhbVeEwdIL8ZAVxbIWr5-2" target="vhbVeEwdIL8ZAVxbIWr5-3" edge="1">
          <mxGeometry relative="1" as="geometry" />
        </mxCell>
        <mxCell id="vhbVeEwdIL8ZAVxbIWr5-5" value="มี ?" style="rhombus;whiteSpace=wrap;html=1;" parent="vhbVeEwdIL8ZAVxbIWr5-1" vertex="1">
          <mxGeometry x="40" y="140" width="60" height="60" as="geometry" />
        </mxCell>
        <mxCell id="vhbVeEwdIL8ZAVxbIWr5-6" value="" style="edgeStyle=orthogonalEdgeStyle;rounded=0;orthogonalLoop=1;jettySize=auto;html=1;" parent="vhbVeEwdIL8ZAVxbIWr5-1" source="vhbVeEwdIL8ZAVxbIWr5-3" target="vhbVeEwdIL8ZAVxbIWr5-5" edge="1">
          <mxGeometry relative="1" as="geometry" />
        </mxCell>
        <mxCell id="vhbVeEwdIL8ZAVxbIWr5-7" value="สิ้นสุด" style="ellipse;whiteSpace=wrap;html=1;" parent="vhbVeEwdIL8ZAVxbIWr5-1" vertex="1">
          <mxGeometry x="225" y="690" width="80" height="40" as="geometry" />
        </mxCell>
        <mxCell id="vhbVeEwdIL8ZAVxbIWr5-8" style="edgeStyle=orthogonalEdgeStyle;rounded=0;orthogonalLoop=1;jettySize=auto;html=1;entryX=0;entryY=0.5;entryDx=0;entryDy=0;" parent="vhbVeEwdIL8ZAVxbIWr5-1" source="vhbVeEwdIL8ZAVxbIWr5-5" target="vhbVeEwdIL8ZAVxbIWr5-7" edge="1">
          <mxGeometry relative="1" as="geometry">
            <Array as="points">
              <mxPoint x="70" y="710" />
            </Array>
          </mxGeometry>
        </mxCell>
        <mxCell id="vhbVeEwdIL8ZAVxbIWr5-9" value="ไม่" style="edgeLabel;html=1;align=center;verticalAlign=middle;resizable=0;points=[];" parent="vhbVeEwdIL8ZAVxbIWr5-8" vertex="1" connectable="0">
          <mxGeometry x="-0.8925" y="1" relative="1" as="geometry">
            <mxPoint as="offset" />
          </mxGeometry>
        </mxCell>
        <mxCell id="vhbVeEwdIL8ZAVxbIWr5-10" value="ตรวจสอบ Account &lt;br&gt;สถานะการใช้งาน" style="rounded=1;whiteSpace=wrap;html=1;" parent="vhbVeEwdIL8ZAVxbIWr5-1" vertex="1">
          <mxGeometry x="276" y="150" width="170" height="40" as="geometry" />
        </mxCell>
        <mxCell id="vhbVeEwdIL8ZAVxbIWr5-11" value="" style="edgeStyle=orthogonalEdgeStyle;rounded=0;orthogonalLoop=1;jettySize=auto;html=1;" parent="vhbVeEwdIL8ZAVxbIWr5-1" source="vhbVeEwdIL8ZAVxbIWr5-5" target="vhbVeEwdIL8ZAVxbIWr5-10" edge="1">
          <mxGeometry relative="1" as="geometry">
            <Array as="points">
              <mxPoint x="180" y="170" />
              <mxPoint x="180" y="170" />
            </Array>
          </mxGeometry>
        </mxCell>
        <mxCell id="vhbVeEwdIL8ZAVxbIWr5-12" value="ใช่" style="edgeLabel;html=1;align=center;verticalAlign=middle;resizable=0;points=[];" parent="vhbVeEwdIL8ZAVxbIWr5-11" vertex="1" connectable="0">
          <mxGeometry x="-0.7797" y="-1" relative="1" as="geometry">
            <mxPoint as="offset" />
          </mxGeometry>
        </mxCell>
        <mxCell id="vhbVeEwdIL8ZAVxbIWr5-13" value="" style="edgeStyle=orthogonalEdgeStyle;rounded=0;orthogonalLoop=1;jettySize=auto;html=1;" parent="vhbVeEwdIL8ZAVxbIWr5-1" source="vhbVeEwdIL8ZAVxbIWr5-10" target="vhbVeEwdIL8ZAVxbIWr5-17" edge="1">
          <mxGeometry relative="1" as="geometry" />
        </mxCell>
        <mxCell id="vhbVeEwdIL8ZAVxbIWr5-14" style="edgeStyle=orthogonalEdgeStyle;rounded=0;orthogonalLoop=1;jettySize=auto;html=1;entryX=0;entryY=0;entryDx=0;entryDy=0;" parent="vhbVeEwdIL8ZAVxbIWr5-1" target="vhbVeEwdIL8ZAVxbIWr5-7" edge="1">
          <mxGeometry relative="1" as="geometry">
            <Array as="points">
              <mxPoint x="208" y="690" />
              <mxPoint x="237" y="690" />
            </Array>
            <mxPoint x="160" y="680" as="sourcePoint" />
          </mxGeometry>
        </mxCell>
        <mxCell id="vhbVeEwdIL8ZAVxbIWr5-15" value="" style="ellipse;whiteSpace=wrap;html=1;aspect=fixed;" parent="vhbVeEwdIL8ZAVxbIWr5-1" vertex="1">
          <mxGeometry x="137.5" y="660" width="30" height="30" as="geometry" />
        </mxCell>
        <mxCell id="vhbVeEwdIL8ZAVxbIWr5-16" style="edgeStyle=orthogonalEdgeStyle;rounded=0;orthogonalLoop=1;jettySize=auto;html=1;entryX=0;entryY=0.5;entryDx=0;entryDy=0;" parent="vhbVeEwdIL8ZAVxbIWr5-1" source="vhbVeEwdIL8ZAVxbIWr5-40" target="vhbVeEwdIL8ZAVxbIWr5-15" edge="1">
          <mxGeometry relative="1" as="geometry">
            <mxPoint x="106.25" y="323" as="sourcePoint" />
            <Array as="points">
              <mxPoint x="90" y="323" />
              <mxPoint x="90" y="680" />
              <mxPoint x="138" y="680" />
            </Array>
          </mxGeometry>
        </mxCell>
        <mxCell id="vhbVeEwdIL8ZAVxbIWr5-17" value="มีใน&lt;br&gt;ระบบ &lt;br&gt;?" style="rhombus;whiteSpace=wrap;html=1;" parent="vhbVeEwdIL8ZAVxbIWr5-1" vertex="1">
          <mxGeometry x="323.9499999999998" y="228" width="75" height="70" as="geometry" />
        </mxCell>
        <mxCell id="vhbVeEwdIL8ZAVxbIWr5-18" value="status&lt;br style=&quot;border-color: var(--border-color);&quot;&gt;= 1 ?" style="rhombus;whiteSpace=wrap;html=1;" parent="vhbVeEwdIL8ZAVxbIWr5-1" vertex="1">
          <mxGeometry x="331.4499999999998" y="348" width="60" height="60" as="geometry" />
        </mxCell>
        <mxCell id="vhbVeEwdIL8ZAVxbIWr5-19" value="" style="edgeStyle=orthogonalEdgeStyle;rounded=0;orthogonalLoop=1;jettySize=auto;html=1;" parent="vhbVeEwdIL8ZAVxbIWr5-1" source="vhbVeEwdIL8ZAVxbIWr5-17" target="vhbVeEwdIL8ZAVxbIWr5-18" edge="1">
          <mxGeometry relative="1" as="geometry" />
        </mxCell>
        <mxCell id="vhbVeEwdIL8ZAVxbIWr5-20" value="ใช่" style="edgeLabel;html=1;align=center;verticalAlign=middle;resizable=0;points=[];" parent="vhbVeEwdIL8ZAVxbIWr5-19" vertex="1" connectable="0">
          <mxGeometry x="-0.3254" y="2" relative="1" as="geometry">
            <mxPoint x="-2" as="offset" />
          </mxGeometry>
        </mxCell>
        <mxCell id="vhbVeEwdIL8ZAVxbIWr5-21" value="Locked&lt;br style=&quot;border-color: var(--border-color);&quot;&gt;= 1 ?&amp;nbsp;" style="rhombus;whiteSpace=wrap;html=1;" parent="vhbVeEwdIL8ZAVxbIWr5-1" vertex="1">
          <mxGeometry x="331.4499999999998" y="478" width="60" height="60" as="geometry" />
        </mxCell>
        <mxCell id="vhbVeEwdIL8ZAVxbIWr5-22" value="" style="edgeStyle=orthogonalEdgeStyle;rounded=0;orthogonalLoop=1;jettySize=auto;html=1;" parent="vhbVeEwdIL8ZAVxbIWr5-1" source="vhbVeEwdIL8ZAVxbIWr5-18" target="vhbVeEwdIL8ZAVxbIWr5-21" edge="1">
          <mxGeometry relative="1" as="geometry" />
        </mxCell>
        <mxCell id="vhbVeEwdIL8ZAVxbIWr5-23" value="ไม่" style="edgeLabel;html=1;align=center;verticalAlign=middle;resizable=0;points=[];" parent="vhbVeEwdIL8ZAVxbIWr5-22" vertex="1" connectable="0">
          <mxGeometry x="-0.3745" relative="1" as="geometry">
            <mxPoint as="offset" />
          </mxGeometry>
        </mxCell>
        <mxCell id="vhbVeEwdIL8ZAVxbIWr5-24" style="edgeStyle=orthogonalEdgeStyle;rounded=0;orthogonalLoop=1;jettySize=auto;html=1;" parent="vhbVeEwdIL8ZAVxbIWr5-1" source="vhbVeEwdIL8ZAVxbIWr5-17" target="vhbVeEwdIL8ZAVxbIWr5-32" edge="1">
          <mxGeometry relative="1" as="geometry">
            <mxPoint x="257.5999999999999" y="263" as="targetPoint" />
          </mxGeometry>
        </mxCell>
        <mxCell id="vhbVeEwdIL8ZAVxbIWr5-25" value="ไม่" style="edgeLabel;html=1;align=center;verticalAlign=middle;resizable=0;points=[];" parent="vhbVeEwdIL8ZAVxbIWr5-24" vertex="1" connectable="0">
          <mxGeometry x="-0.6573" y="2" relative="1" as="geometry">
            <mxPoint as="offset" />
          </mxGeometry>
        </mxCell>
        <mxCell id="vhbVeEwdIL8ZAVxbIWr5-26" style="edgeStyle=orthogonalEdgeStyle;rounded=0;orthogonalLoop=1;jettySize=auto;html=1;entryX=0.5;entryY=0;entryDx=0;entryDy=0;" parent="vhbVeEwdIL8ZAVxbIWr5-1" source="vhbVeEwdIL8ZAVxbIWr5-27" target="vhbVeEwdIL8ZAVxbIWr5-15" edge="1">
          <mxGeometry relative="1" as="geometry" />
        </mxCell>
        <mxCell id="vhbVeEwdIL8ZAVxbIWr5-27" value="rerturn Error Code&amp;nbsp;011&lt;span style=&quot;font-size: medium; text-align: start;&quot;&gt;&lt;/span&gt;" style="rounded=1;whiteSpace=wrap;html=1;" parent="vhbVeEwdIL8ZAVxbIWr5-1" vertex="1">
          <mxGeometry x="207.5" y="600" width="77.5" height="40" as="geometry" />
        </mxCell>
        <mxCell id="vhbVeEwdIL8ZAVxbIWr5-28" value="ตรวจสอบว่า provinceCode &lt;br&gt;มีในฐานข้อมูลไหม" style="rounded=1;whiteSpace=wrap;html=1;" parent="vhbVeEwdIL8ZAVxbIWr5-1" vertex="1">
          <mxGeometry x="480" y="232" width="123.65" height="62" as="geometry" />
        </mxCell>
        <mxCell id="vhbVeEwdIL8ZAVxbIWr5-29" value="" style="edgeStyle=orthogonalEdgeStyle;rounded=0;orthogonalLoop=1;jettySize=auto;html=1;" parent="vhbVeEwdIL8ZAVxbIWr5-1" source="vhbVeEwdIL8ZAVxbIWr5-21" target="vhbVeEwdIL8ZAVxbIWr5-28" edge="1">
          <mxGeometry relative="1" as="geometry">
            <Array as="points">
              <mxPoint x="410" y="508" />
              <mxPoint x="410" y="263" />
            </Array>
          </mxGeometry>
        </mxCell>
        <mxCell id="vhbVeEwdIL8ZAVxbIWr5-30" value="ไม่" style="edgeLabel;html=1;align=center;verticalAlign=middle;resizable=0;points=[];" parent="vhbVeEwdIL8ZAVxbIWr5-29" vertex="1" connectable="0">
          <mxGeometry x="0.1426" y="-1" relative="1" as="geometry">
            <mxPoint as="offset" />
          </mxGeometry>
        </mxCell>
        <mxCell id="vhbVeEwdIL8ZAVxbIWr5-31" value="" style="edgeStyle=orthogonalEdgeStyle;rounded=0;orthogonalLoop=1;jettySize=auto;html=1;" parent="vhbVeEwdIL8ZAVxbIWr5-1" source="vhbVeEwdIL8ZAVxbIWr5-28" target="vhbVeEwdIL8ZAVxbIWr5-51" edge="1">
          <mxGeometry relative="1" as="geometry">
            <Array as="points">
              <mxPoint x="665" y="260" />
            </Array>
          </mxGeometry>
        </mxCell>
        <mxCell id="vhbVeEwdIL8ZAVxbIWr5-32" value="สร้างข้อมูล ActivityLog&lt;span style=&quot;font-size: medium; text-align: start;&quot;&gt;&lt;/span&gt;" style="rounded=1;whiteSpace=wrap;html=1;" parent="vhbVeEwdIL8ZAVxbIWr5-1" vertex="1">
          <mxGeometry x="207.5" y="243" width="77.5" height="40" as="geometry" />
        </mxCell>
        <mxCell id="vhbVeEwdIL8ZAVxbIWr5-33" style="edgeStyle=orthogonalEdgeStyle;rounded=0;orthogonalLoop=1;jettySize=auto;html=1;entryX=0;entryY=0;entryDx=0;entryDy=0;" parent="vhbVeEwdIL8ZAVxbIWr5-1" source="vhbVeEwdIL8ZAVxbIWr5-34" target="vhbVeEwdIL8ZAVxbIWr5-15" edge="1">
          <mxGeometry relative="1" as="geometry">
            <Array as="points">
              <mxPoint x="100" y="440" />
              <mxPoint x="100" y="664" />
              <mxPoint x="142" y="664" />
            </Array>
          </mxGeometry>
        </mxCell>
        <mxCell id="vhbVeEwdIL8ZAVxbIWr5-34" value="rerturn Error Code&amp;nbsp;004&lt;span style=&quot;font-size: medium; text-align: start;&quot;&gt;&lt;/span&gt;" style="rounded=1;whiteSpace=wrap;html=1;" parent="vhbVeEwdIL8ZAVxbIWr5-1" vertex="1">
          <mxGeometry x="106.25" y="420" width="77.5" height="40" as="geometry" />
        </mxCell>
        <mxCell id="vhbVeEwdIL8ZAVxbIWr5-35" value="สร้างข้อมูล ActivityLog&lt;span style=&quot;font-size: medium; text-align: start;&quot;&gt;&lt;/span&gt;" style="rounded=1;whiteSpace=wrap;html=1;" parent="vhbVeEwdIL8ZAVxbIWr5-1" vertex="1">
          <mxGeometry x="207.5" y="358" width="77.5" height="40" as="geometry" />
        </mxCell>
        <mxCell id="vhbVeEwdIL8ZAVxbIWr5-36" value="" style="edgeStyle=orthogonalEdgeStyle;rounded=0;orthogonalLoop=1;jettySize=auto;html=1;" parent="vhbVeEwdIL8ZAVxbIWr5-1" source="vhbVeEwdIL8ZAVxbIWr5-18" target="vhbVeEwdIL8ZAVxbIWr5-35" edge="1">
          <mxGeometry relative="1" as="geometry" />
        </mxCell>
        <mxCell id="vhbVeEwdIL8ZAVxbIWr5-37" value="ใช่" style="edgeLabel;html=1;align=center;verticalAlign=middle;resizable=0;points=[];" parent="vhbVeEwdIL8ZAVxbIWr5-36" vertex="1" connectable="0">
          <mxGeometry x="-0.1729" relative="1" as="geometry">
            <mxPoint as="offset" />
          </mxGeometry>
        </mxCell>
        <mxCell id="vhbVeEwdIL8ZAVxbIWr5-38" value="บันทึกข้อมูล&lt;span style=&quot;font-size: medium; text-align: start;&quot;&gt;&lt;/span&gt;" style="rounded=1;whiteSpace=wrap;html=1;" parent="vhbVeEwdIL8ZAVxbIWr5-1" vertex="1">
          <mxGeometry x="110" y="243" width="77.5" height="40" as="geometry" />
        </mxCell>
        <mxCell id="vhbVeEwdIL8ZAVxbIWr5-39" value="" style="edgeStyle=orthogonalEdgeStyle;rounded=0;orthogonalLoop=1;jettySize=auto;html=1;" parent="vhbVeEwdIL8ZAVxbIWr5-1" source="vhbVeEwdIL8ZAVxbIWr5-32" target="vhbVeEwdIL8ZAVxbIWr5-38" edge="1">
          <mxGeometry relative="1" as="geometry" />
        </mxCell>
        <mxCell id="vhbVeEwdIL8ZAVxbIWr5-40" value="rerturn Error Code&amp;nbsp;001&lt;span style=&quot;font-size: medium; text-align: start;&quot;&gt;&lt;/span&gt;" style="rounded=1;whiteSpace=wrap;html=1;" parent="vhbVeEwdIL8ZAVxbIWr5-1" vertex="1">
          <mxGeometry x="110" y="308" width="77.5" height="40" as="geometry" />
        </mxCell>
        <mxCell id="vhbVeEwdIL8ZAVxbIWr5-41" value="" style="edgeStyle=orthogonalEdgeStyle;rounded=0;orthogonalLoop=1;jettySize=auto;html=1;" parent="vhbVeEwdIL8ZAVxbIWr5-1" source="vhbVeEwdIL8ZAVxbIWr5-38" target="vhbVeEwdIL8ZAVxbIWr5-40" edge="1">
          <mxGeometry relative="1" as="geometry" />
        </mxCell>
        <mxCell id="vhbVeEwdIL8ZAVxbIWr5-42" value="" style="edgeStyle=orthogonalEdgeStyle;rounded=0;orthogonalLoop=1;jettySize=auto;html=1;" parent="vhbVeEwdIL8ZAVxbIWr5-1" source="vhbVeEwdIL8ZAVxbIWr5-43" target="vhbVeEwdIL8ZAVxbIWr5-34" edge="1">
          <mxGeometry relative="1" as="geometry" />
        </mxCell>
        <mxCell id="vhbVeEwdIL8ZAVxbIWr5-43" value="บันทึกข้อมูล&lt;span style=&quot;font-size: medium; text-align: start;&quot;&gt;&lt;/span&gt;" style="rounded=1;whiteSpace=wrap;html=1;" parent="vhbVeEwdIL8ZAVxbIWr5-1" vertex="1">
          <mxGeometry x="207.5" y="420" width="77.5" height="40" as="geometry" />
        </mxCell>
        <mxCell id="vhbVeEwdIL8ZAVxbIWr5-44" value="" style="edgeStyle=orthogonalEdgeStyle;rounded=0;orthogonalLoop=1;jettySize=auto;html=1;" parent="vhbVeEwdIL8ZAVxbIWr5-1" source="vhbVeEwdIL8ZAVxbIWr5-35" target="vhbVeEwdIL8ZAVxbIWr5-43" edge="1">
          <mxGeometry relative="1" as="geometry" />
        </mxCell>
        <mxCell id="vhbVeEwdIL8ZAVxbIWr5-45" value="สร้างข้อมูล ActivityLog&lt;span style=&quot;font-size: medium; text-align: start;&quot;&gt;&lt;/span&gt;" style="rounded=1;whiteSpace=wrap;html=1;" parent="vhbVeEwdIL8ZAVxbIWr5-1" vertex="1">
          <mxGeometry x="207.5" y="488" width="77.5" height="40" as="geometry" />
        </mxCell>
        <mxCell id="vhbVeEwdIL8ZAVxbIWr5-46" value="" style="edgeStyle=orthogonalEdgeStyle;rounded=0;orthogonalLoop=1;jettySize=auto;html=1;" parent="vhbVeEwdIL8ZAVxbIWr5-1" source="vhbVeEwdIL8ZAVxbIWr5-21" target="vhbVeEwdIL8ZAVxbIWr5-45" edge="1">
          <mxGeometry relative="1" as="geometry" />
        </mxCell>
        <mxCell id="vhbVeEwdIL8ZAVxbIWr5-47" value="ใช่" style="edgeLabel;html=1;align=center;verticalAlign=middle;resizable=0;points=[];" parent="vhbVeEwdIL8ZAVxbIWr5-46" vertex="1" connectable="0">
          <mxGeometry x="-0.1659" y="-1" relative="1" as="geometry">
            <mxPoint as="offset" />
          </mxGeometry>
        </mxCell>
        <mxCell id="vhbVeEwdIL8ZAVxbIWr5-48" value="" style="edgeStyle=orthogonalEdgeStyle;rounded=0;orthogonalLoop=1;jettySize=auto;html=1;" parent="vhbVeEwdIL8ZAVxbIWr5-1" source="vhbVeEwdIL8ZAVxbIWr5-49" target="vhbVeEwdIL8ZAVxbIWr5-27" edge="1">
          <mxGeometry relative="1" as="geometry" />
        </mxCell>
        <mxCell id="vhbVeEwdIL8ZAVxbIWr5-49" value="บันทึกข้อมูล&lt;span style=&quot;font-size: medium; text-align: start;&quot;&gt;&lt;/span&gt;" style="rounded=1;whiteSpace=wrap;html=1;" parent="vhbVeEwdIL8ZAVxbIWr5-1" vertex="1">
          <mxGeometry x="207.5" y="545" width="77.5" height="40" as="geometry" />
        </mxCell>
        <mxCell id="vhbVeEwdIL8ZAVxbIWr5-50" value="" style="edgeStyle=orthogonalEdgeStyle;rounded=0;orthogonalLoop=1;jettySize=auto;html=1;" parent="vhbVeEwdIL8ZAVxbIWr5-1" source="vhbVeEwdIL8ZAVxbIWr5-45" target="vhbVeEwdIL8ZAVxbIWr5-49" edge="1">
          <mxGeometry relative="1" as="geometry" />
        </mxCell>
        <mxCell id="vhbVeEwdIL8ZAVxbIWr5-51" value="มี ?" style="rhombus;whiteSpace=wrap;html=1;" parent="vhbVeEwdIL8ZAVxbIWr5-1" vertex="1">
          <mxGeometry x="634.9000000000001" y="330" width="60" height="60" as="geometry" />
        </mxCell>
        <mxCell id="vhbVeEwdIL8ZAVxbIWr5-52" value="rerturn Error Code&amp;nbsp;016&lt;span style=&quot;font-size: medium; text-align: start;&quot;&gt;&lt;/span&gt;" style="rounded=1;whiteSpace=wrap;html=1;" parent="vhbVeEwdIL8ZAVxbIWr5-1" vertex="1">
          <mxGeometry x="426.3499999999999" y="410" width="77.5" height="40" as="geometry" />
        </mxCell>
        <mxCell id="vhbVeEwdIL8ZAVxbIWr5-53" style="edgeStyle=orthogonalEdgeStyle;rounded=0;orthogonalLoop=1;jettySize=auto;html=1;entryX=0.5;entryY=0;entryDx=0;entryDy=0;" parent="vhbVeEwdIL8ZAVxbIWr5-1" source="vhbVeEwdIL8ZAVxbIWr5-52" target="vhbVeEwdIL8ZAVxbIWr5-61" edge="1">
          <mxGeometry relative="1" as="geometry">
            <mxPoint x="465.9000000000001" y="480" as="targetPoint" />
            <Array as="points">
              <mxPoint x="465" y="550" />
              <mxPoint x="360" y="550" />
            </Array>
          </mxGeometry>
        </mxCell>
        <mxCell id="vhbVeEwdIL8ZAVxbIWr5-54" value="สร้างข้อมูล ActivityLog&lt;span style=&quot;font-size: medium; text-align: start;&quot;&gt;&lt;/span&gt;" style="rounded=1;whiteSpace=wrap;html=1;" parent="vhbVeEwdIL8ZAVxbIWr5-1" vertex="1">
          <mxGeometry x="528" y="340" width="77.5" height="40" as="geometry" />
        </mxCell>
        <mxCell id="vhbVeEwdIL8ZAVxbIWr5-55" style="edgeStyle=orthogonalEdgeStyle;rounded=0;orthogonalLoop=1;jettySize=auto;html=1;entryX=0.5;entryY=0;entryDx=0;entryDy=0;" parent="vhbVeEwdIL8ZAVxbIWr5-1" source="vhbVeEwdIL8ZAVxbIWr5-56" target="vhbVeEwdIL8ZAVxbIWr5-52" edge="1">
          <mxGeometry relative="1" as="geometry" />
        </mxCell>
        <mxCell id="vhbVeEwdIL8ZAVxbIWr5-56" value="บันทึกข้อมูล&lt;span style=&quot;font-size: medium; text-align: start;&quot;&gt;&lt;/span&gt;" style="rounded=1;whiteSpace=wrap;html=1;" parent="vhbVeEwdIL8ZAVxbIWr5-1" vertex="1">
          <mxGeometry x="426.3499999999999" y="340" width="77.5" height="40" as="geometry" />
        </mxCell>
        <mxCell id="vhbVeEwdIL8ZAVxbIWr5-57" value="" style="edgeStyle=orthogonalEdgeStyle;rounded=0;orthogonalLoop=1;jettySize=auto;html=1;" parent="vhbVeEwdIL8ZAVxbIWr5-1" source="vhbVeEwdIL8ZAVxbIWr5-51" target="vhbVeEwdIL8ZAVxbIWr5-54" edge="1">
          <mxGeometry relative="1" as="geometry" />
        </mxCell>
        <mxCell id="vhbVeEwdIL8ZAVxbIWr5-58" value="ไม่" style="edgeLabel;html=1;align=center;verticalAlign=middle;resizable=0;points=[];" parent="vhbVeEwdIL8ZAVxbIWr5-57" vertex="1" connectable="0">
          <mxGeometry x="0.2439" relative="1" as="geometry">
            <mxPoint as="offset" />
          </mxGeometry>
        </mxCell>
        <mxCell id="vhbVeEwdIL8ZAVxbIWr5-59" value="" style="edgeStyle=orthogonalEdgeStyle;rounded=0;orthogonalLoop=1;jettySize=auto;html=1;" parent="vhbVeEwdIL8ZAVxbIWr5-1" source="vhbVeEwdIL8ZAVxbIWr5-54" target="vhbVeEwdIL8ZAVxbIWr5-56" edge="1">
          <mxGeometry relative="1" as="geometry" />
        </mxCell>
        <mxCell id="vhbVeEwdIL8ZAVxbIWr5-60" style="edgeStyle=orthogonalEdgeStyle;rounded=0;orthogonalLoop=1;jettySize=auto;html=1;entryX=1;entryY=0;entryDx=0;entryDy=0;" parent="vhbVeEwdIL8ZAVxbIWr5-1" source="vhbVeEwdIL8ZAVxbIWr5-61" target="vhbVeEwdIL8ZAVxbIWr5-7" edge="1">
          <mxGeometry relative="1" as="geometry" />
        </mxCell>
        <mxCell id="vhbVeEwdIL8ZAVxbIWr5-61" value="" style="ellipse;whiteSpace=wrap;html=1;aspect=fixed;" parent="vhbVeEwdIL8ZAVxbIWr5-1" vertex="1">
          <mxGeometry x="345" y="675" width="30" height="30" as="geometry" />
        </mxCell>
        <mxCell id="vhbVeEwdIL8ZAVxbIWr5-62" value="ตรวจสอบว่า distritCode &lt;br&gt;มีในฐานข้อมูลไหม" style="rounded=1;whiteSpace=wrap;html=1;" parent="vhbVeEwdIL8ZAVxbIWr5-1" vertex="1">
          <mxGeometry x="539.99" y="430" width="123.65" height="62" as="geometry" />
        </mxCell>
        <mxCell id="vhbVeEwdIL8ZAVxbIWr5-63" style="edgeStyle=orthogonalEdgeStyle;rounded=0;orthogonalLoop=1;jettySize=auto;html=1;entryX=0.5;entryY=0;entryDx=0;entryDy=0;" parent="vhbVeEwdIL8ZAVxbIWr5-1" source="vhbVeEwdIL8ZAVxbIWr5-51" target="vhbVeEwdIL8ZAVxbIWr5-62" edge="1">
          <mxGeometry relative="1" as="geometry">
            <mxPoint x="664.9000000000001" y="430" as="targetPoint" />
          </mxGeometry>
        </mxCell>
        <mxCell id="vhbVeEwdIL8ZAVxbIWr5-64" value="" style="edgeStyle=orthogonalEdgeStyle;rounded=0;orthogonalLoop=1;jettySize=auto;html=1;" parent="vhbVeEwdIL8ZAVxbIWr5-1" source="vhbVeEwdIL8ZAVxbIWr5-65" target="vhbVeEwdIL8ZAVxbIWr5-61" edge="1">
          <mxGeometry relative="1" as="geometry">
            <Array as="points">
              <mxPoint x="499" y="690" />
            </Array>
          </mxGeometry>
        </mxCell>
        <mxCell id="vhbVeEwdIL8ZAVxbIWr5-65" value="rerturn Error Code&amp;nbsp;021&lt;span style=&quot;font-size: medium; text-align: start;&quot;&gt;&lt;/span&gt;" style="rounded=1;whiteSpace=wrap;html=1;" parent="vhbVeEwdIL8ZAVxbIWr5-1" vertex="1">
          <mxGeometry x="460" y="630" width="77.5" height="40" as="geometry" />
        </mxCell>
        <mxCell id="vhbVeEwdIL8ZAVxbIWr5-66" value="สร้างข้อมูล ActivityLog&lt;span style=&quot;font-size: medium; text-align: start;&quot;&gt;&lt;/span&gt;" style="rounded=1;whiteSpace=wrap;html=1;" parent="vhbVeEwdIL8ZAVxbIWr5-1" vertex="1">
          <mxGeometry x="563.0699999999999" y="560" width="77.5" height="40" as="geometry" />
        </mxCell>
        <mxCell id="vhbVeEwdIL8ZAVxbIWr5-67" style="edgeStyle=orthogonalEdgeStyle;rounded=0;orthogonalLoop=1;jettySize=auto;html=1;entryX=0.5;entryY=0;entryDx=0;entryDy=0;" parent="vhbVeEwdIL8ZAVxbIWr5-1" source="vhbVeEwdIL8ZAVxbIWr5-68" target="vhbVeEwdIL8ZAVxbIWr5-65" edge="1">
          <mxGeometry relative="1" as="geometry" />
        </mxCell>
        <mxCell id="vhbVeEwdIL8ZAVxbIWr5-68" value="บันทึกข้อมูล&lt;span style=&quot;font-size: medium; text-align: start;&quot;&gt;&lt;/span&gt;" style="rounded=1;whiteSpace=wrap;html=1;" parent="vhbVeEwdIL8ZAVxbIWr5-1" vertex="1">
          <mxGeometry x="460" y="560" width="77.5" height="40" as="geometry" />
        </mxCell>
        <mxCell id="vhbVeEwdIL8ZAVxbIWr5-69" value="" style="edgeStyle=orthogonalEdgeStyle;rounded=0;orthogonalLoop=1;jettySize=auto;html=1;" parent="vhbVeEwdIL8ZAVxbIWr5-1" source="vhbVeEwdIL8ZAVxbIWr5-66" target="vhbVeEwdIL8ZAVxbIWr5-68" edge="1">
          <mxGeometry relative="1" as="geometry" />
        </mxCell>
        <mxCell id="vhbVeEwdIL8ZAVxbIWr5-70" style="edgeStyle=orthogonalEdgeStyle;rounded=0;orthogonalLoop=1;jettySize=auto;html=1;entryX=0.5;entryY=0;entryDx=0;entryDy=0;" parent="vhbVeEwdIL8ZAVxbIWr5-1" source="vhbVeEwdIL8ZAVxbIWr5-72" target="vhbVeEwdIL8ZAVxbIWr5-66" edge="1">
          <mxGeometry relative="1" as="geometry" />
        </mxCell>
        <mxCell id="vhbVeEwdIL8ZAVxbIWr5-71" value="ไม่" style="edgeLabel;html=1;align=center;verticalAlign=middle;resizable=0;points=[];" parent="vhbVeEwdIL8ZAVxbIWr5-70" vertex="1" connectable="0">
          <mxGeometry x="-0.5983" y="-2" relative="1" as="geometry">
            <mxPoint as="offset" />
          </mxGeometry>
        </mxCell>
        <mxCell id="vhbVeEwdIL8ZAVxbIWr5-72" value="มี ?" style="rhombus;whiteSpace=wrap;html=1;" parent="vhbVeEwdIL8ZAVxbIWr5-1" vertex="1">
          <mxGeometry x="670" y="488" width="60" height="60" as="geometry" />
        </mxCell>
        <mxCell id="vhbVeEwdIL8ZAVxbIWr5-73" value="" style="edgeStyle=orthogonalEdgeStyle;rounded=0;orthogonalLoop=1;jettySize=auto;html=1;entryX=0.5;entryY=0;entryDx=0;entryDy=0;" parent="vhbVeEwdIL8ZAVxbIWr5-1" source="vhbVeEwdIL8ZAVxbIWr5-62" target="vhbVeEwdIL8ZAVxbIWr5-72" edge="1">
          <mxGeometry relative="1" as="geometry" />
        </mxCell>
        <mxCell id="vhbVeEwdIL8ZAVxbIWr5-74" value="แก้ไขข้อมูลเขต" style="rounded=1;whiteSpace=wrap;html=1;" parent="vhbVeEwdIL8ZAVxbIWr5-1" vertex="1">
          <mxGeometry x="526.1499999999999" y="760" width="77.5" height="40" as="geometry" />
        </mxCell>
        <mxCell id="vhbVeEwdIL8ZAVxbIWr5-75" value="สร้างข้อมูล ActivityLog&lt;span style=&quot;font-size: medium; text-align: start;&quot;&gt;&lt;/span&gt;" style="rounded=1;whiteSpace=wrap;html=1;" parent="vhbVeEwdIL8ZAVxbIWr5-1" vertex="1">
          <mxGeometry x="426" y="760" width="77.5" height="40" as="geometry" />
        </mxCell>
        <mxCell id="vhbVeEwdIL8ZAVxbIWr5-76" value="" style="edgeStyle=orthogonalEdgeStyle;rounded=0;orthogonalLoop=1;jettySize=auto;html=1;" parent="vhbVeEwdIL8ZAVxbIWr5-1" source="vhbVeEwdIL8ZAVxbIWr5-74" target="vhbVeEwdIL8ZAVxbIWr5-75" edge="1">
          <mxGeometry relative="1" as="geometry">
            <mxPoint x="490.5" y="780" as="targetPoint" />
          </mxGeometry>
        </mxCell>
        <mxCell id="vhbVeEwdIL8ZAVxbIWr5-77" value="ตรวจสอบสถานะ status ที่แก้ไขเป็น 0 หรือ 1 ไหม&lt;span style=&quot;font-size: medium; text-align: start;&quot;&gt;&lt;/span&gt;" style="rounded=1;whiteSpace=wrap;html=1;" parent="vhbVeEwdIL8ZAVxbIWr5-1" vertex="1">
          <mxGeometry x="590" y="620" width="127.5" height="50" as="geometry" />
        </mxCell>
        <mxCell id="vhbVeEwdIL8ZAVxbIWr5-78" value="" style="edgeStyle=orthogonalEdgeStyle;rounded=0;orthogonalLoop=1;jettySize=auto;html=1;" parent="vhbVeEwdIL8ZAVxbIWr5-1" source="vhbVeEwdIL8ZAVxbIWr5-72" target="vhbVeEwdIL8ZAVxbIWr5-77" edge="1">
          <mxGeometry relative="1" as="geometry" />
        </mxCell>
        <mxCell id="vhbVeEwdIL8ZAVxbIWr5-79" value="มี" style="edgeLabel;html=1;align=center;verticalAlign=middle;resizable=0;points=[];" parent="vhbVeEwdIL8ZAVxbIWr5-78" vertex="1" connectable="0">
          <mxGeometry x="-0.1067" y="2" relative="1" as="geometry">
            <mxPoint as="offset" />
          </mxGeometry>
        </mxCell>
        <mxCell id="vhbVeEwdIL8ZAVxbIWr5-80" value="สร้างข้อมูล ActivityLog&lt;span style=&quot;font-size: medium; text-align: start;&quot;&gt;&lt;/span&gt;" style="rounded=1;whiteSpace=wrap;html=1;" parent="vhbVeEwdIL8ZAVxbIWr5-1" vertex="1">
          <mxGeometry x="686.25" y="750" width="77.5" height="40" as="geometry" />
        </mxCell>
        <mxCell id="vhbVeEwdIL8ZAVxbIWr5-81" value="บันทึกข้อมูล&lt;span style=&quot;font-size: medium; text-align: start;&quot;&gt;&lt;/span&gt;" style="rounded=1;whiteSpace=wrap;html=1;" parent="vhbVeEwdIL8ZAVxbIWr5-1" vertex="1">
          <mxGeometry x="686.25" y="836" width="77.5" height="40" as="geometry" />
        </mxCell>
        <mxCell id="vhbVeEwdIL8ZAVxbIWr5-82" value="" style="edgeStyle=orthogonalEdgeStyle;rounded=0;orthogonalLoop=1;jettySize=auto;html=1;" parent="vhbVeEwdIL8ZAVxbIWr5-1" source="vhbVeEwdIL8ZAVxbIWr5-80" target="vhbVeEwdIL8ZAVxbIWr5-81" edge="1">
          <mxGeometry relative="1" as="geometry" />
        </mxCell>
        <mxCell id="vhbVeEwdIL8ZAVxbIWr5-83" style="edgeStyle=orthogonalEdgeStyle;rounded=0;orthogonalLoop=1;jettySize=auto;html=1;entryX=0.546;entryY=0.05;entryDx=0;entryDy=0;entryPerimeter=0;" parent="vhbVeEwdIL8ZAVxbIWr5-1" source="vhbVeEwdIL8ZAVxbIWr5-87" target="vhbVeEwdIL8ZAVxbIWr5-80" edge="1">
          <mxGeometry relative="1" as="geometry">
            <Array as="points">
              <mxPoint x="728.2499999999998" y="730" />
              <mxPoint x="728.2499999999998" y="742" />
            </Array>
          </mxGeometry>
        </mxCell>
        <mxCell id="vhbVeEwdIL8ZAVxbIWr5-84" value="ไม่" style="edgeLabel;html=1;align=center;verticalAlign=middle;resizable=0;points=[];" parent="vhbVeEwdIL8ZAVxbIWr5-83" vertex="1" connectable="0">
          <mxGeometry x="-0.4774" y="2" relative="1" as="geometry">
            <mxPoint as="offset" />
          </mxGeometry>
        </mxCell>
        <mxCell id="vhbVeEwdIL8ZAVxbIWr5-85" value="" style="edgeStyle=orthogonalEdgeStyle;rounded=0;orthogonalLoop=1;jettySize=auto;html=1;" parent="vhbVeEwdIL8ZAVxbIWr5-1" source="vhbVeEwdIL8ZAVxbIWr5-87" target="vhbVeEwdIL8ZAVxbIWr5-74" edge="1">
          <mxGeometry relative="1" as="geometry">
            <Array as="points">
              <mxPoint x="570" y="730" />
            </Array>
          </mxGeometry>
        </mxCell>
        <mxCell id="vhbVeEwdIL8ZAVxbIWr5-86" value="ใช่" style="edgeLabel;html=1;align=center;verticalAlign=middle;resizable=0;points=[];" parent="vhbVeEwdIL8ZAVxbIWr5-85" vertex="1" connectable="0">
          <mxGeometry x="-0.4568" relative="1" as="geometry">
            <mxPoint as="offset" />
          </mxGeometry>
        </mxCell>
        <mxCell id="vhbVeEwdIL8ZAVxbIWr5-87" value="ใช่?" style="rhombus;whiteSpace=wrap;html=1;" parent="vhbVeEwdIL8ZAVxbIWr5-1" vertex="1">
          <mxGeometry x="623.7499999999998" y="700" width="60" height="60" as="geometry" />
        </mxCell>
        <mxCell id="vhbVeEwdIL8ZAVxbIWr5-88" value="" style="edgeStyle=orthogonalEdgeStyle;rounded=0;orthogonalLoop=1;jettySize=auto;html=1;" parent="vhbVeEwdIL8ZAVxbIWr5-1" source="vhbVeEwdIL8ZAVxbIWr5-77" target="vhbVeEwdIL8ZAVxbIWr5-87" edge="1">
          <mxGeometry relative="1" as="geometry" />
        </mxCell>
        <mxCell id="vhbVeEwdIL8ZAVxbIWr5-89" value="" style="edgeStyle=orthogonalEdgeStyle;rounded=0;orthogonalLoop=1;jettySize=auto;html=1;" parent="vhbVeEwdIL8ZAVxbIWr5-1" source="vhbVeEwdIL8ZAVxbIWr5-90" target="vhbVeEwdIL8ZAVxbIWr5-61" edge="1">
          <mxGeometry relative="1" as="geometry" />
        </mxCell>
        <mxCell id="vhbVeEwdIL8ZAVxbIWr5-90" value="บันทึกข้อมูล&lt;span style=&quot;font-size: medium; text-align: start;&quot;&gt;&lt;/span&gt;" style="rounded=1;whiteSpace=wrap;html=1;" parent="vhbVeEwdIL8ZAVxbIWr5-1" vertex="1">
          <mxGeometry x="321.25" y="760" width="77.5" height="40" as="geometry" />
        </mxCell>
        <mxCell id="vhbVeEwdIL8ZAVxbIWr5-91" value="" style="edgeStyle=orthogonalEdgeStyle;rounded=0;orthogonalLoop=1;jettySize=auto;html=1;" parent="vhbVeEwdIL8ZAVxbIWr5-1" source="vhbVeEwdIL8ZAVxbIWr5-75" target="vhbVeEwdIL8ZAVxbIWr5-90" edge="1">
          <mxGeometry relative="1" as="geometry" />
        </mxCell>
        <mxCell id="vhbVeEwdIL8ZAVxbIWr5-92" style="edgeStyle=orthogonalEdgeStyle;rounded=0;orthogonalLoop=1;jettySize=auto;html=1;entryX=0.5;entryY=1;entryDx=0;entryDy=0;" parent="vhbVeEwdIL8ZAVxbIWr5-1" source="vhbVeEwdIL8ZAVxbIWr5-93" target="vhbVeEwdIL8ZAVxbIWr5-7" edge="1">
          <mxGeometry relative="1" as="geometry" />
        </mxCell>
        <mxCell id="vhbVeEwdIL8ZAVxbIWr5-93" value="rerturn Error Code&amp;nbsp;019&lt;span style=&quot;font-size: medium; text-align: start;&quot;&gt;&lt;/span&gt;" style="rounded=1;whiteSpace=wrap;html=1;" parent="vhbVeEwdIL8ZAVxbIWr5-1" vertex="1">
          <mxGeometry x="557.4000000000001" y="836" width="77.5" height="40" as="geometry" />
        </mxCell>
        <mxCell id="vhbVeEwdIL8ZAVxbIWr5-94" value="" style="edgeStyle=orthogonalEdgeStyle;rounded=0;orthogonalLoop=1;jettySize=auto;html=1;" parent="vhbVeEwdIL8ZAVxbIWr5-1" source="vhbVeEwdIL8ZAVxbIWr5-81" target="vhbVeEwdIL8ZAVxbIWr5-93" edge="1">
          <mxGeometry relative="1" as="geometry" />
        </mxCell>
      </root>
    </mxGraphModel>
  </diagram>
</mxfile>
